<svg width="41" height="41" viewBox="0 0 41 41" fill="none" xmlns="http://www.w3.org/2000/svg">
<g id="ic_ape_40.53ac41f3.svg" clip-path="url(#clip0_1_324)">
<g id="surface1">
<path id="Vector" d="M40.5 20.7549C40.5 9.70019 31.5352 0.754883 20.5 0.754883C9.44531 0.754883 0.5 9.70019 0.5 20.7549C0.5 31.79 9.44531 40.7549 20.5 40.7549C31.5352 40.7549 40.5 31.79 40.5 20.7549Z" fill="url(#paint0_radial_1_324)"/>
<path id="Vector_2" d="M34.0977 14.5049C34.0117 15.001 33.9258 15.2393 33.7969 15.4971C33.668 15.7979 33.5391 16.1221 33.4102 16.8096C33.3672 17.0713 33.3242 17.2861 33.3008 17.458V17.4775C33.2578 17.7588 33.2383 17.9541 33.1289 18.2783C33.043 18.5557 32.8906 19.0088 32.5273 19.4814C32.2227 19.8721 31.7266 20.54 31.0586 20.626C30.9961 20.626 30.8867 20.626 30.8242 20.6025C28.9258 19.6338 27.3086 18.9229 26.75 18.7705C26.1016 18.5791 26.1914 17.1572 26.2539 15.9072C26.2969 15.3447 26.3203 14.8057 26.2969 14.3525C26.2109 12.7588 25.9297 11.0361 24.5508 10.1963C23.7344 9.7002 22.6562 9.54785 21.6406 9.54785C21.8359 9.46191 22.0312 9.33301 22.2656 9.2041C22.8711 8.85644 23.6016 8.42676 24.3594 8.34082C24.5938 8.32129 24.832 8.29785 25.0703 8.25488C26.5547 8.08301 27.8477 7.93066 29.207 8.40723C29.832 8.62207 31.082 9.30957 31.4062 9.97754C31.6406 10.4307 32.0312 10.7979 32.7852 11.5088C33.1953 11.876 33.4531 12.0908 33.6484 12.2627C33.9258 12.4775 33.9687 12.5439 34.0547 12.6963C34.3164 13.2119 34.2266 13.751 34.0977 14.5049Z" fill="white"/>
<path id="Vector_3" d="M27.2226 21.0362C27.3086 21.0557 27.3515 21.1651 27.289 21.251C27.0937 21.5518 26.8593 21.9815 26.5781 22.4776C26.4492 22.7159 26.3203 22.9541 26.2109 23.126C25.8437 23.751 25.8242 24.2901 25.8008 24.7002C25.7812 25.1534 25.7578 25.3448 25.4765 25.5166C25.2617 25.669 25.0273 25.712 23.4726 25.9502C23.1953 25.9932 23.0859 26.0362 22.9765 26.0987C22.957 26.1221 22.914 26.1221 22.8906 26.1416C22.8047 26.1846 22.7187 26.0987 22.7187 26.0127C22.7422 25.7979 22.7422 25.5166 22.7422 25.1534V25.087C22.7422 24.7862 22.7422 24.5284 22.7187 24.3331C22.6992 23.9463 22.6992 23.7706 22.8047 23.5987C22.9336 23.3838 23.0429 23.3213 23.1953 23.212C23.4297 23.0596 23.7539 22.8682 24.207 22.2198C24.4648 21.876 24.5078 21.6807 24.5508 21.5323C24.5742 21.4659 24.5742 21.4463 24.7656 21.294C24.9609 21.1416 25.5859 20.669 26.3828 20.7979C26.6406 20.8409 26.9219 20.9268 27.2226 21.0362Z" fill="white"/>
<path id="Vector_4" d="M21.039 28.1885C20.9961 28.2314 20.9726 28.2549 20.9101 28.2549C20.7383 28.2549 20.6289 28.2119 20.5664 28.126C20.414 27.9307 20.4336 27.5439 20.457 27.3057L21.125 27.1338C21.1679 27.501 21.1914 27.9971 21.039 28.1885Z" fill="white"/>
<path id="Vector_5" d="M21.082 25.8212C21.0586 25.9072 21.0586 26.0126 21.0586 26.1415C21.0586 26.1845 21.0586 26.2275 21.0586 26.2705C21.0586 26.3798 21.0586 26.5517 21.0586 26.6376C20.8437 26.704 20.6719 26.704 20.457 26.704C20.457 26.6376 20.457 26.5322 20.457 26.4658C20.457 26.4228 20.457 26.3564 20.457 26.3134C20.457 26.2509 20.457 26.208 20.457 26.1415C20.457 26.0126 20.457 25.8212 20.4766 25.7548C20.543 25.7548 20.6094 25.7314 20.6719 25.7119C20.8008 25.6884 20.9961 25.6455 21.1016 25.6689C21.1016 25.7119 21.1016 25.7783 21.082 25.8212Z" fill="white"/>
<path id="Vector_6" d="M19.875 27.9971C19.8515 28.3408 19.7461 28.751 19.4218 28.8135C19.2734 28.8369 19.207 28.7939 19.164 28.751C18.9492 28.5557 18.9257 27.9541 18.9492 27.5205C19.0976 27.5205 19.2734 27.501 19.4883 27.458C19.6172 27.4346 19.7461 27.3916 19.8515 27.3721C19.875 27.5439 19.8984 27.7588 19.875 27.9971Z" fill="white"/>
<path id="Vector_7" d="M19.7227 26.79L19.0117 27.0479C19.0547 26.7666 19.0977 26.3799 19.1211 26.1221C19.1406 25.9502 19.1836 25.8838 19.207 25.8643C19.207 25.8643 19.2266 25.8408 19.25 25.8408C19.25 25.8408 19.25 25.8408 19.2734 25.8408H19.293L19.7461 25.8213C19.7227 26.0361 19.7227 26.5088 19.7227 26.79Z" fill="white"/>
<path id="Vector_8" d="M18.5586 26.5752C18.5156 26.6807 18.4727 26.9814 18.4531 27.2002L17.5703 27.1767C17.6133 26.8955 17.6992 26.6182 17.7617 26.4033C17.8477 26.1846 17.9141 26.0127 18 25.9697C18.0859 25.9267 18.2813 25.9072 18.4102 26.0127C18.6016 26.1416 18.6484 26.3369 18.5586 26.5752Z" fill="white"/>
<path id="Vector_9" d="M18.2383 29.3096C18.1718 29.3955 18.0859 29.4619 18 29.4619C17.8906 29.4814 17.8281 29.4385 17.7617 29.3955C17.4843 29.1377 17.5039 28.2979 17.5273 27.8877C17.8906 27.8018 18.3008 27.7393 18.4961 27.7158C18.4961 28.04 18.5156 28.9229 18.2383 29.3096Z" fill="white"/>
<path id="Vector_10" d="M17.0742 27.1337C17.0312 27.2431 16.9883 27.3486 16.9648 27.458C16.8594 27.5009 16.5352 27.458 16.2109 27.3915L16.4258 25.9931C16.793 25.8837 17.2227 25.8642 17.3086 25.9697C17.4609 26.122 17.1797 26.833 17.0742 27.1337Z" fill="white"/>
<path id="Vector_11" d="M16.6641 29.5049C16.4922 29.7197 16.2344 29.8291 15.8672 29.8057C15.6094 29.8057 15.5235 29.7002 15.4766 29.6338C15.2852 29.3096 15.4766 28.5557 15.6719 28.083L16.8789 28.1455C16.9024 28.2314 16.9024 28.3408 16.9024 28.4502C16.9219 28.8135 16.8789 29.2471 16.6641 29.5049Z" fill="white"/>
<path id="Vector_12" d="M26.6641 19.3096C25.5664 19.0088 25.6719 17.415 25.7578 15.8643C25.7813 15.3252 25.8242 14.8057 25.8008 14.376C25.7148 12.9307 25.4766 11.3564 24.3164 10.6455C23.0664 9.8916 21.0156 10.0635 19.7656 10.2158C19.3164 10.3447 18.8828 10.4541 18.5391 10.4307C17.8047 10.3877 17.2227 10.0869 16.707 9.80566C16.3203 9.59082 15.9727 9.39551 15.6289 9.39551C15.6094 9.39551 15.5859 9.39551 15.5859 9.39551C14.6172 9.46191 14.1641 9.70019 13.7539 10.0635C13.6484 10.1533 13.5156 10.4111 13.1094 11.5947C12.8906 12.2002 12.8711 12.5205 12.8281 12.8252C12.7852 13.1025 12.7617 13.4072 12.6133 13.8564C12.5039 14.1611 12.418 14.4189 12.3516 14.6768C12.1602 15.3447 11.9883 15.8838 11.5117 16.5322C11.4492 16.5947 11.3828 16.7236 11.2969 16.833C11.1914 17.0049 11.0586 17.2197 10.8672 17.458C10.7383 17.6299 10.457 18.2783 10.4766 18.4697C10.5 18.7939 10.6094 18.9893 10.7148 19.2041C10.8242 19.4189 10.9727 19.6768 10.9961 20.0439V20.1064C11.0391 20.6689 10.9531 20.9502 9.89844 21.8955C9.22657 22.501 8.73438 23.083 8.41016 23.5127C8.38672 23.5557 8.41016 23.5986 8.47266 23.5986C8.4961 23.5986 8.4961 23.5986 8.4961 23.5986C8.51563 23.5986 8.53907 23.5986 8.5586 23.5986C8.58204 23.5986 8.60157 23.5986 8.625 23.5986C8.64844 23.5986 8.66797 23.5986 8.69141 23.5986C8.94922 23.6221 9.20704 23.7275 9.37891 23.9229C9.40235 23.9658 9.46485 23.9658 9.50782 23.9463C9.67969 23.8799 9.875 23.8799 10.0469 23.9033C10.2617 23.9229 10.5 23.9893 10.6523 24.1377C10.6953 24.1807 10.7578 24.2041 10.8242 24.1807C10.9961 24.1377 11.1914 24.1377 11.3633 24.2041C11.4922 24.2471 11.6211 24.333 11.707 24.4385C11.7734 24.5049 11.8789 24.5283 11.9648 24.4814C12.0078 24.4619 12.0742 24.4189 12.1367 24.3955C12.375 24.3096 12.6328 24.3525 12.8477 24.4385C12.957 24.4814 13.0664 24.5049 13.1719 24.5908C13.3438 24.7197 13.4727 24.8916 13.5391 25.0869C13.582 25.1963 13.7344 25.2393 13.8203 25.1533C13.9922 25.0205 14.1211 25.001 14.25 25.0439C14.3164 25.0635 14.3594 25.1064 14.4023 25.1729C14.4648 25.2588 14.5742 25.3447 14.6602 25.3018C15.0273 25.1963 15.457 25.2588 15.7813 25.4307C15.8867 25.4971 16.0156 25.583 16.082 25.7119V25.6455C16.082 25.626 16.1016 25.6025 16.125 25.583L16.1914 25.5596C16.3633 25.4971 17.2656 25.2393 17.6133 25.6025C17.6328 25.626 17.6563 25.626 17.6758 25.6025C17.7188 25.5596 17.7617 25.5166 17.7852 25.5166C18.0234 25.3877 18.4102 25.3682 18.668 25.6025C18.7109 25.6455 18.7969 25.626 18.8398 25.583C18.8633 25.54 18.8828 25.5166 18.9258 25.4971C19.0117 25.4111 19.1406 25.3877 19.2734 25.3877L19.7656 25.3682C19.8984 25.3682 20.2852 25.3252 20.3906 25.3018H20.4141C20.457 25.3018 20.5234 25.2822 20.5859 25.2588C20.8242 25.2158 21.1016 25.1533 21.3203 25.2588C21.5352 25.3682 21.5117 25.6025 21.4922 25.8213C21.4922 25.9072 21.4688 25.9932 21.4688 26.0791C21.4688 26.1221 21.4688 26.165 21.4688 26.208C21.4688 26.4033 21.4688 26.5752 21.4492 26.7041L21.4688 26.8096C21.4688 26.8096 21.4688 26.8096 21.4688 26.833C21.4922 26.9189 21.5977 26.9814 21.6641 26.9189C21.8359 26.8096 22.0078 26.6807 22.0742 26.5947V26.5752C22.0742 26.5518 22.0938 26.5088 22.1172 26.4229C22.1367 26.2275 22.1797 25.8643 22.1797 25.1064C22.1797 25.0635 22.1797 25.0439 22.1797 25.0205C22.1797 24.7432 22.1797 24.5049 22.1602 24.3096C22.1367 23.9033 22.1172 23.5791 22.332 23.2549C22.5273 22.9307 22.7188 22.8252 22.9141 22.6963C23.1289 22.5635 23.3672 22.415 23.7773 21.8525C23.9688 21.5752 23.9922 21.4658 24.0117 21.3799C24.0547 21.165 24.1211 21.0361 24.4453 20.8213C24.7031 20.626 25.457 20.0439 26.4922 20.2158C26.8359 20.2822 27.375 20.4541 27.9336 20.6689C27.957 20.6689 27.9766 20.6885 28 20.6885H28.0234C28.5156 20.8838 28.9688 21.0986 29.293 21.2705C29.3594 21.3135 29.4453 21.2939 29.5078 21.2275C29.6172 21.0986 29.7227 21.0361 29.832 20.9502C29.875 20.9268 29.918 20.9072 29.9414 20.8838C29.9609 20.8838 29.9609 20.8643 29.9609 20.8643C30.0469 20.7979 30.0469 20.626 29.9414 20.583C28.4961 19.8721 27.1172 19.4385 26.6641 19.3096ZM16.2773 19.6338C15.9297 21.0986 13.6484 22.7393 12.6133 22.7393H12.5898C12.5703 22.7393 12.5469 22.7393 12.5469 22.7393C12.5273 22.7393 12.5039 22.7393 12.4844 22.7158C12.4609 22.7158 12.4609 22.7158 12.4414 22.7158C12.2461 22.6533 11.9883 22.5205 11.793 22.3291C11.6641 22.2002 11.5547 22.0283 11.5117 21.876C11.5117 21.8525 11.4922 21.8096 11.4922 21.79C11.4258 21.5322 11.3633 21.2275 11.5781 20.7119C11.5977 20.6455 11.6406 20.583 11.6641 20.5166C11.6641 20.4971 11.6836 20.4736 11.6836 20.4541C11.707 20.3877 11.7266 20.3447 11.75 20.3018C11.7734 20.2158 11.8164 20.1533 11.8359 20.1064C11.8359 20.0869 11.8594 20.0635 11.8594 20.0439C11.9219 19.8721 11.9219 19.8057 11.9453 19.7432C11.9453 19.7002 11.9648 19.6143 11.9883 19.5283C12.0508 19.2471 12.0938 19.0088 12.1172 18.8135C12.1602 18.4502 12.2227 18.126 12.418 17.8252C12.4609 17.7822 12.4844 17.7393 12.5273 17.6963C12.5469 17.6729 12.5469 17.6729 12.5703 17.6533C12.5898 17.6299 12.5898 17.6299 12.6133 17.6064C12.6563 17.5635 12.7188 17.5439 12.7617 17.5205C12.7852 17.5205 12.8047 17.501 12.8281 17.501C12.8711 17.4775 12.9141 17.4775 12.957 17.458C13.1523 17.415 13.3672 17.415 13.625 17.4346C13.9063 17.458 14.1641 17.501 14.3789 17.5635C14.5742 17.6064 14.7461 17.6729 14.875 17.7393C14.8984 17.7393 14.8984 17.7588 14.918 17.7588C14.9414 17.7822 14.9609 17.7822 15.0039 17.8018C15.0469 17.8252 15.0703 17.8252 15.1133 17.8447C15.1563 17.8682 15.1992 17.8877 15.2422 17.9111L15.2852 17.9307C15.4336 17.9971 15.5859 18.083 15.6953 18.1689C15.7578 18.2119 15.8008 18.2549 15.8438 18.2979C15.8672 18.3213 15.8867 18.3213 15.8867 18.3408C15.9102 18.3643 15.9102 18.3643 15.9297 18.3838C16.3828 18.7705 16.3633 19.3096 16.2773 19.6338ZM17.3516 14.0518L17.3086 14.3096C17.2031 14.915 16.9648 15.7314 16.1016 15.9502C15.2617 16.1416 15.0703 16.1846 14.4883 16.2275C14.4648 16.2275 14.4648 16.2275 14.4453 16.2275C14.0117 16.2275 13.1719 15.9502 13.0234 15.2822C12.9336 14.8486 13.1289 14.5283 13.4297 14.0088C13.4727 13.9229 13.5391 13.8369 13.6016 13.7275C14.0352 13.0166 14.1836 12.501 14.3164 12.0908C14.4453 11.6807 14.5508 11.3564 14.832 11.0791C14.8984 11.0127 14.9609 10.9502 15.0469 10.9072C15.0898 10.8643 15.1563 10.8408 15.2188 10.7979C15.3047 10.7549 15.3906 10.7314 15.4766 10.6885C15.6719 10.626 15.8867 10.6025 16.082 10.6025C16.4922 10.6025 16.9023 10.7119 17.1797 10.9502C17.3086 11.0557 17.5039 11.251 17.6133 11.876C17.6563 12.2002 17.5703 12.7822 17.3516 14.0518ZM23.5391 15.7783C23.2383 16.2939 23.0859 16.5752 22.8281 16.79C22.3086 17.2197 21.7266 17.3057 21.2344 17.3057C20.8867 17.3057 20.5859 17.2432 20.3906 17.2197C19.875 17.1338 18.9492 16.9619 18.625 16.208C18.5586 16.0557 18.5586 15.9697 18.5586 15.8408C18.5586 15.7314 18.5586 15.5166 18.4961 15.0635V15.0439C18.4727 14.8291 18.4531 14.5908 18.4961 14.29V14.2471C18.668 13.3408 18.7344 13.2119 18.7539 13.126C18.8398 12.9541 19.0547 12.8682 19.25 12.9736C19.4219 13.0596 19.4883 13.2783 19.4219 13.4502C19.4023 13.4932 19.3594 13.6846 19.207 14.3955V14.4385C19.1641 14.6338 19.1836 14.7861 19.207 14.9775V15.001C19.2734 15.5166 19.2734 15.7314 19.2734 15.8643C19.2734 15.8838 19.2734 15.9072 19.2734 15.9268V15.9502C19.3359 16.0986 19.4648 16.1846 19.6172 16.2705C19.7227 16.3135 19.832 16.2275 19.8086 16.1221C19.6602 15.3252 19.6602 14.3955 19.9609 13.8135C20.0703 13.6221 20.2422 13.3213 20.4141 13.0166C20.4336 12.9971 20.457 12.9541 20.457 12.9307C20.4766 12.9111 20.4766 12.8877 20.5 12.8682C20.5859 12.7393 20.6523 12.6299 20.7148 12.5205C20.7148 12.501 20.7383 12.501 20.7383 12.4775L20.7578 12.458C20.7813 12.4346 20.7813 12.415 20.8008 12.3916C20.8008 12.3916 20.8008 12.3721 20.8242 12.3721L20.8438 12.3486C20.8438 12.3291 20.8672 12.3291 20.8672 12.3057C20.9297 12.2197 20.9961 12.1338 21.0391 12.0479C21.125 11.9385 21.0156 11.8096 20.9102 11.8525C20.6094 11.9814 20.4141 12.1338 20.3711 12.1572C20.2188 12.2861 19.9844 12.2627 19.8516 12.0908C19.7227 11.9385 19.7461 11.7041 19.918 11.5752C20.1133 11.4229 21.1016 10.7119 22.2891 11.0361C23.1523 11.2705 23.582 11.9385 23.7539 12.1768C23.8828 12.3721 24.3164 12.9736 24.293 13.8369C24.293 14.4619 24.0352 14.9346 23.5391 15.7783Z" fill="white"/>
<path id="Vector_13" d="M15.8242 11.3564C15.7578 11.5088 15.6953 11.6807 15.6094 11.876C15.4336 12.3291 15.2188 12.8447 15.1133 13.04C14.9414 13.3643 14.8086 13.5791 14.7032 13.7275C14.5742 13.9229 14.4883 14.0752 14.4024 14.29C14.2735 14.6572 14.25 15.0635 14.336 15.5166C14.0977 15.4971 13.7344 15.3447 13.6914 15.1299C13.668 14.9775 13.7539 14.8291 14.0117 14.376C14.0547 14.29 14.1211 14.1807 14.1836 14.0947C14.6367 13.3213 14.8321 12.7393 14.961 12.3057C15.1133 11.8525 15.1758 11.6611 15.4141 11.4893C15.5664 11.4229 15.6953 11.3799 15.8242 11.3564Z" fill="white"/>
<path id="Vector_14" d="M15.3711 27.6533C15.1133 28.1689 14.8086 28.6416 14.6172 28.8799C14.4453 28.4502 14.1641 27.4346 14.25 26.6377C14.25 26.6182 14.25 26.5947 14.25 26.5752C14.2735 26.3135 14.336 26.0986 14.4649 25.9072C14.5508 25.7783 14.7656 25.7119 15.0039 25.7119C15.1758 25.7119 15.3711 25.7549 15.543 25.8408C15.6289 25.8838 15.7578 25.9932 15.7578 26.2705C15.8008 26.6611 15.6094 27.1768 15.3711 27.6533Z" fill="white"/>
<path id="Vector_15" d="M29.1641 21.8955C29.1836 21.919 29.1836 21.9385 29.1836 21.9619C29.1211 22.1143 29.0117 22.2198 28.9062 22.3487C28.7773 22.501 28.625 22.6729 28.4961 22.9541C28.3008 23.3408 28.2383 23.6846 28.2148 24.5908C28.1719 25.6455 28.2148 26.2276 28.2578 26.6612C28.2812 27.0713 28.3008 27.3291 28.2383 27.7393C28.0859 28.5557 27.7422 29.0948 27.2891 29.7862C26.7266 30.6455 26.168 31.5323 25.2188 31.8096C25.1328 31.833 25.1328 31.833 24.875 31.833C24.6602 31.833 24.293 31.833 23.625 31.8526C22.375 31.8955 21.75 31.919 21.2344 32.0283C20.6719 32.1338 20.3906 32.2627 20.0898 32.3721C19.832 32.4776 19.5938 32.5635 19.1406 32.6729C18.8633 32.7393 18.4531 32.7823 17.0508 32.8018C15.5859 32.8018 14.7031 32.8018 13.5586 32.6729C11.9648 32.501 11.168 32.3916 10.6289 32.1143C9.37891 31.4463 8.83984 30.2393 7.97656 28.2549C7.97656 28.2315 8 28.2119 8.02344 28.2119C8.06641 28.2315 8.10938 28.2549 8.15234 28.2783C8.19531 28.2979 8.23828 28.2979 8.25781 28.2979C8.34375 28.3213 8.42969 28.3213 8.51563 28.2979C8.53906 28.2979 8.53906 28.2979 8.55859 28.2783C8.58203 28.2783 8.60156 28.2783 8.60156 28.2979C8.66797 28.4502 8.75391 28.5791 8.90625 28.6651C9.05469 28.751 9.22656 28.751 9.37891 28.751C9.55078 28.751 9.72266 28.7276 9.89844 28.708C9.98438 28.708 10.0703 28.751 10.1133 28.8135C10.2617 29.2041 10.457 29.4619 10.7578 29.5049C10.7812 29.5049 10.8008 29.5049 10.8242 29.5049C10.8867 29.5049 10.9961 29.4815 11.125 29.3955C11.2344 29.3096 11.4063 29.376 11.4922 29.4815C11.5547 29.5908 11.6406 29.6573 11.7266 29.7198C12.0312 30.0205 12.7617 30.1729 13.3672 30.1729C13.6914 30.1729 13.9922 30.1299 14.1641 30.044C14.4219 29.9151 14.4219 29.7432 14.4023 29.6573C14.3789 29.5283 14.3594 29.376 14.3359 29.2471C14.3359 29.2237 14.3594 29.2237 14.3594 29.2471C14.4023 29.333 14.4453 29.419 14.5508 29.4385C14.5742 29.4385 14.5742 29.4385 14.5938 29.4385C14.7656 29.4385 15.0273 29.5049 15.0703 29.6573C15.0898 29.7432 15.1328 29.8057 15.1758 29.8916C15.2852 30.044 15.4766 30.2393 15.8867 30.2588H15.9102C16.3828 30.2588 16.75 30.1065 16.9883 29.8057C17.0078 29.7862 17.0078 29.7627 17.0312 29.7432C17.1172 29.6143 17.375 29.6143 17.4844 29.7198C17.6133 29.8291 17.7617 29.8916 17.9336 29.8916C17.957 29.8916 18 29.8916 18.0234 29.8916C18.2383 29.8721 18.4102 29.7627 18.5586 29.5713C18.6484 29.4385 18.7109 29.2901 18.7539 29.1182C18.7773 29.0752 18.8398 29.0518 18.8828 29.0948C18.9688 29.1807 19.1211 29.2666 19.3359 29.2666C19.3789 29.2666 19.4453 29.2666 19.5078 29.2471C19.918 29.1612 20.1328 28.8135 20.2188 28.4502C20.2188 28.4268 20.2422 28.4268 20.2422 28.4502C20.3477 28.5791 20.543 28.7276 20.8672 28.7276C20.8867 28.7276 20.9102 28.7276 20.9102 28.7276C21.082 28.7276 21.2344 28.6416 21.3398 28.5127C21.4688 28.3408 21.5117 28.083 21.5352 27.8448C21.5352 27.7823 21.5781 27.7158 21.6641 27.6729C22.0078 27.5205 22.4414 27.2002 22.5703 26.9815C22.5703 26.9815 22.5703 26.9619 22.5898 26.9619C22.6133 26.8955 22.6758 26.8526 22.7188 26.8526C23 26.8096 23.1094 26.7471 23.2148 26.7041C23.3008 26.6612 23.3672 26.6377 23.582 26.5948C25.1562 26.3565 25.457 26.294 25.8008 26.0791C26.3203 25.7315 26.3398 25.2588 26.3633 24.8057C26.3828 24.419 26.4062 23.9893 26.707 23.4698C26.8164 23.2783 26.9453 23.0596 27.0742 22.8018C27.3086 22.3721 27.6328 21.7666 27.8711 21.4463C27.9141 21.3799 28 21.3565 28.0664 21.4033C28.6016 21.5948 29.0781 21.8096 29.1641 21.8955Z" fill="white"/>
<path id="Vector_16" d="M13.8633 26.5947C13.7969 27.1338 13.7539 27.8682 13.8398 28.8135C13.8633 29.0752 13.9062 29.3525 13.9492 29.6338C13.8828 29.6768 13.6484 29.7432 13.2578 29.7197C12.6992 29.7002 12.1367 29.5713 11.9648 29.376L11.9453 29.3525C11.8164 29.2471 11.707 29.1611 11.707 28.9658C11.707 28.9033 11.7266 28.8369 11.793 28.7275C11.8359 28.6846 11.8789 28.6221 11.9219 28.5361C12.0078 28.4072 12.1367 28.2549 12.2656 28.04C12.6328 27.4346 12.7617 27.2432 12.9336 27.0049C12.957 26.9814 12.957 26.9619 12.9766 26.9385C13.0859 26.8096 13.1953 26.6377 13.3867 26.3564C13.5156 26.165 13.625 25.9932 13.7344 25.8643C13.8828 25.6455 13.9922 25.54 14.0547 25.4736C14.0547 25.5596 14.0352 25.6885 14.0117 25.8213C13.9258 26.0791 13.8828 26.3135 13.8633 26.5947Z" fill="white"/>
<path id="Vector_17" d="M13.582 18.1025C13.582 18.126 13.582 18.126 13.582 18.1025C13.4961 18.2119 13.4101 18.3408 13.3008 18.5557C13.0234 19.1611 13.0234 19.5049 13.0234 19.7861C13.0234 19.9346 13.0234 20.0439 12.9765 20.1729C12.957 20.2588 12.914 20.3682 12.8476 20.4736C12.6992 20.8408 12.4844 21.3135 12.5703 21.9619C12.4414 21.8955 12.2461 21.7471 12.2031 21.6807C12.2031 21.6377 12.1797 21.6182 12.1797 21.5752C12.1367 21.3799 12.1172 21.251 12.2226 20.9502C12.5703 20.1729 12.6133 19.9775 12.6328 19.7627C12.6328 19.7197 12.6562 19.6768 12.6562 19.6143C12.7187 19.3096 12.7617 19.0518 12.7851 18.8369C12.8281 18.5127 12.8711 18.2979 12.9765 18.1455C13.0234 18.083 13.1289 18.0596 13.2812 18.0596C13.3437 18.0596 13.4101 18.0596 13.4961 18.083H13.5156C13.582 18.1025 13.582 18.1025 13.582 18.1025Z" fill="white"/>
<path id="Vector_18" d="M13.1523 25.7979C13.1289 25.6025 13.1094 25.4307 13.0234 25.2393C13.0234 25.2393 13 25.1963 13 25.1729C12.9766 25.1533 12.9766 25.1299 12.957 25.1064L12.9336 25.0869C12.9141 25.0635 12.9141 25.0635 12.8906 25.0635L12.8711 25.0439C12.8477 25.0439 12.8477 25.0205 12.8281 25.0205H12.8047C12.6992 24.9775 12.5898 24.9346 12.4609 24.915C12.4414 24.915 12.418 24.915 12.418 24.915C12.3984 24.915 12.3984 24.915 12.375 24.915H12.3516C12.332 24.915 12.3086 24.9346 12.2656 24.9346C12.2461 24.9346 12.2461 24.958 12.2227 24.958L12.2031 24.9775C12.1797 25.001 12.1797 25.001 12.1602 25.0205L12.1367 25.0439V25.0635C12.0937 25.1299 12.0508 25.1963 12.0078 25.2588C11.9023 25.4111 11.793 25.583 11.6836 25.7314C11.5781 25.8838 11.4922 26.0127 11.3828 26.165C11.3203 26.251 11.2773 26.3135 11.2109 26.4033C11.2109 26.4229 11.1914 26.4229 11.1914 26.4463C11.2539 26.4658 11.3203 26.4658 11.3828 26.4893C11.5352 26.5088 11.6836 26.5322 11.8164 26.5518C12.1172 26.5947 12.4414 26.6182 12.7422 26.5947C12.7617 26.5947 12.7617 26.5947 12.7852 26.5947C12.8477 26.4893 12.957 26.3564 13.0664 26.1846C13.1289 26.0986 13.1953 26.0127 13.2383 25.9268C13.1719 25.9072 13.1523 25.8408 13.1523 25.7979Z" fill="white"/>
<path id="Vector_19" d="M12.0508 27.0713C12.0312 27.3057 11.7734 27.9111 11.3633 28.4932C11.0156 28.9658 10.8008 29.0947 10.7578 29.0947C10.5859 29.0752 10.4336 28.665 10.3047 28.2549C10.2617 28.083 10.1992 27.9307 10.1758 27.7822C10.0898 27.4775 10.0703 27.0479 10.0898 26.79C10.4336 26.9814 11.039 27.0283 11.9023 27.0283C11.9453 27.0479 12.0078 27.0479 12.0508 27.0713Z" fill="white"/>
<path id="Vector_20" d="M11.4492 25.1299C11.2969 25.3682 11.1484 25.583 10.9961 25.7979C10.9102 25.9072 10.8437 26.0127 10.7578 26.1221C10.7148 26.1846 10.6523 26.251 10.6094 26.3135C10.4766 26.2939 10.3711 26.251 10.2422 26.2275C10.1328 26.208 10.0469 26.165 9.94141 26.1221C9.91797 26.1221 9.89844 26.0986 9.875 26.0986C9.85156 26.0791 9.83203 26.0361 9.80859 26.0127C9.85156 25.9502 9.875 25.8643 9.91797 25.7979C9.98437 25.6689 10.0469 25.54 10.1328 25.4111C10.2617 25.1963 10.4141 24.958 10.6523 24.8057C10.6719 24.8057 10.6719 24.7861 10.6953 24.7861C10.7812 24.7432 10.8672 24.7002 10.9727 24.6768C10.9961 24.6768 11.0586 24.6768 11.1016 24.6768H11.125C11.125 24.6768 11.125 24.6768 11.1484 24.6768C11.168 24.6768 11.1914 24.7002 11.2344 24.7002C11.2344 24.7002 11.2539 24.7002 11.2539 24.7197C11.2773 24.7432 11.2969 24.7432 11.3203 24.7627C11.2773 24.7432 11.3633 24.8291 11.3633 24.8057C11.4063 24.9346 11.4258 25.001 11.4492 25.1299Z" fill="white"/>
<path id="Vector_21" d="M10.2852 24.5049C10.0039 24.7197 9.80859 25.0205 9.66016 25.3447C9.57422 25.5166 9.48828 25.6885 9.40234 25.8642C9.40234 25.8838 9.37891 25.9072 9.37891 25.9072C9.29297 25.8838 9.20703 25.8642 9.14062 25.8408C9.05469 25.8213 8.96875 25.7783 8.88281 25.7549C8.83984 25.7314 8.82031 25.7119 8.77734 25.6885C8.86328 25.54 8.94922 25.3877 9.05469 25.2392C9.18359 25.0439 9.33594 24.8291 9.48828 24.6572C9.55078 24.5908 9.61719 24.5049 9.67969 24.4619C9.76563 24.4189 9.85156 24.4189 9.96094 24.4385C10.0703 24.4385 10.1758 24.4385 10.2617 24.4814C10.2422 24.4814 10.2617 24.5049 10.2852 24.5049Z" fill="white"/>
<path id="Vector_22" d="M9.85159 28.1689C9.83206 28.1885 9.83206 28.1885 9.80862 28.2119H9.78909C9.72268 28.2119 9.66018 28.2314 9.59378 28.2314C9.46487 28.2314 9.33596 28.2549 9.20706 28.2314C9.14065 28.2314 9.07815 28.2119 9.03518 28.1689C8.99221 28.1025 8.96878 27.9736 8.94924 27.8877C8.86331 27.415 8.86331 26.9385 8.90628 26.4658C9.14065 26.5518 9.40237 26.6182 9.66018 26.6611C9.59378 27.0908 9.70315 27.7158 9.74612 27.8877C9.80862 27.9736 9.83206 28.083 9.85159 28.1689Z" fill="white"/>
<path id="Vector_23" d="M9.07812 24.3526C8.86328 24.6143 8.66797 24.8916 8.49609 25.1963C8.42969 25.3018 8.34375 25.4307 8.28125 25.5596C8.19531 25.5401 8.10937 25.4971 8.04297 25.4541C7.97656 25.4111 7.91406 25.3682 7.87109 25.3252C7.84766 25.3018 7.80469 25.2822 7.78516 25.2588C7.78516 25.2588 7.76172 25.2588 7.76172 25.2393C7.78516 25.1729 7.82812 25.1299 7.82812 25.0869C7.87109 24.9776 7.91406 24.8916 7.97656 24.8057C8.08594 24.6338 8.19531 24.4619 8.32422 24.2901C8.36719 24.2236 8.41016 24.1611 8.49609 24.1377C8.55859 24.1182 8.64844 24.1377 8.71094 24.1377C8.83984 24.1611 8.96875 24.2471 9.07812 24.3526Z" fill="white"/>
<path id="Vector_24" d="M7.41798 25.4971C7.41798 25.4736 7.44142 25.4736 7.41798 25.4971C7.50392 25.583 7.57033 25.6455 7.65626 25.7119C7.69923 25.7314 7.71876 25.7783 7.76173 25.7979C7.76173 25.7979 7.76173 25.7979 7.76173 25.8213C7.67579 26.1846 7.61329 26.5752 7.61329 26.9619C7.61329 26.9814 7.58986 26.9814 7.58986 26.9619C7.48439 26.5088 7.35158 25.7783 7.41798 25.4971Z" fill="white"/>
<path id="Vector_25" d="M8.47263 26.2939C8.42967 26.6182 8.41013 26.9385 8.42967 27.2627C8.42967 27.4346 8.4531 27.6064 8.47263 27.8018C8.42967 27.8018 8.3867 27.8018 8.34373 27.8018H8.30076C8.25779 27.7822 8.25779 27.7822 8.21482 27.7588C8.17185 27.7393 8.12888 27.6729 8.08592 27.6064C7.99998 27.458 7.97654 27.2861 7.97654 27.1143C7.95701 26.79 7.99998 26.4463 8.06638 26.1221C8.10935 26.1416 8.17185 26.165 8.23826 26.1846C8.3242 26.2275 8.3867 26.2705 8.47263 26.2939Z" fill="white"/>
<g id="Clip path group">
<mask id="mask0_1_324" style="mask-type:luminance" maskUnits="userSpaceOnUse" x="0" y="0" width="41" height="41">
<g id="clip1">
<path id="Vector_26" d="M40.5 20.7549C40.5 9.70019 31.5352 0.754883 20.5 0.754883C9.44531 0.754883 0.5 9.70019 0.5 20.7549C0.5 31.79 9.44531 40.7549 20.5 40.7549C31.5352 40.7549 40.5 31.79 40.5 20.7549Z" fill="white"/>
</g>
</mask>
<g mask="url(#mask0_1_324)">
<g id="Group">
<g id="Mask group">
<mask id="mask1_1_324" style="mask-type:luminance" maskUnits="userSpaceOnUse" x="0" y="0" width="41" height="41">
<g id="Group_2">
<g id="Group_3">
<path id="Vector_27" d="M40.5 0.754883H0.5V40.7549H40.5V0.754883Z" fill="black" fill-opacity="0.8"/>
</g>
</g>
</mask>
<g mask="url(#mask1_1_324)">
<g id="Clip path group_2">
<mask id="mask2_1_324" style="mask-type:luminance" maskUnits="userSpaceOnUse" x="0" y="0" width="41" height="41">
<g id="clip2">
<path id="Vector_28" d="M40.5 0.754883H0.5V40.7549H40.5V0.754883Z" fill="white"/>
</g>
</mask>
<g mask="url(#mask2_1_324)">
<g id="surface23">
<g id="Mask group_2">
<mask id="mask3_1_324" style="mask-type:luminance" maskUnits="userSpaceOnUse" x="0" y="0" width="41" height="41">
<g id="Group_4">
<g id="Group_5">
<path id="Vector_29" d="M40.5 0.754883H0.5V40.7549H40.5V0.754883Z" fill="black" fill-opacity="0.8"/>
</g>
</g>
</mask>
<g mask="url(#mask3_1_324)">
<g id="Clip path group_3">
<mask id="mask4_1_324" style="mask-type:luminance" maskUnits="userSpaceOnUse" x="0" y="0" width="41" height="41">
<g id="clip3">
<path id="Vector_30" d="M40.5 0.754883H0.5V40.7549H40.5V0.754883Z" fill="white"/>
</g>
</mask>
<g mask="url(#mask4_1_324)">
<g id="surface6">
<path id="Vector_31" d="M16.9648 43.1025C15.5 43.1025 14.1211 43.0165 12.957 42.9306L12.6328 42.9111L12.3086 42.8681C12.1601 42.8447 11.9883 42.8251 11.793 42.8017C10.6719 42.6728 8.58202 42.458 6.27733 41.3798L5.91015 41.208L5.58593 41.0126C1.14843 38.5126 -0.49219 34.7861 -1.39844 32.7822C-1.46094 32.6533 -1.52735 32.5009 -1.58985 32.3486C-2.04297 31.4228 -2.32422 30.6025 -2.55859 29.8291L-2.60156 29.6572L-2.64844 29.4814C-3.29297 27.2002 -3.44531 25.2392 -3.16406 23.2783C-2.86328 21.3135 -2.15234 19.5478 -0.878909 17.6728L-0.234378 16.6181C-0.101566 16.4033 -0.0156284 16.165 0.0468716 15.9267C0.542965 13.4697 1.66406 11.7236 2.22265 10.8838C2.37499 9.87206 2.63281 8.87987 2.97656 7.91112L3.02343 7.75878L3.08593 7.60643C3.08593 7.5869 3.10937 7.54393 3.1289 7.47753C3.38671 6.72362 3.96874 4.97753 5.45702 3.12597L6.01561 2.47753L6.59765 1.96191C8.06639 0.625973 9.83202 -0.366214 11.7265 -0.924807C12.7851 -1.24903 13.8828 -1.44434 15.0039 -1.50684H15.2617C15.457 -1.50684 15.6523 -1.53027 15.8242 -1.53027C16.5117 -1.53027 17.2031 -1.46387 17.8906 -1.3584C18.3242 -1.29199 18.7539 -1.33496 19.164 -1.50684C20.3476 -2.00293 21.5781 -2.32715 22.8476 -2.49902C22.957 -2.52246 23.0429 -2.52246 23.1289 -2.54199C23.3242 -2.56543 23.6484 -2.6084 24.0351 -2.65137C24.7031 -2.71387 25.7382 -2.7998 26.8359 -2.7998C29.0117 -2.7998 30.8867 -2.52246 32.5703 -1.94043L32.7187 -1.89746L32.8476 -1.85449C36.5546 -0.452151 38.4296 1.50878 39.789 3.21191L39.8515 3.29784L40.0468 3.46972C41.2773 4.41894 42.3085 5.60253 43.1289 6.91893L43.3867 7.32909L43.6015 7.75878C45.414 11.4463 44.832 14.8721 44.6171 16.1416L44.5937 16.208C44.4453 17.1572 44.1835 18.083 43.8632 18.9892C43.7343 19.8486 43.539 20.7119 43.2578 21.5322C42.7851 22.997 42.0742 24.3955 41.1679 25.6455C40.6523 26.3799 40.0468 27.0908 39.4023 27.7158C39.164 27.9306 39.0117 28.2314 38.9687 28.5556C38.9492 28.7509 38.9062 28.9463 38.8828 29.1377C38.3437 31.9814 37.1171 33.9658 36.5976 34.7627L35.0703 36.9619C33.2148 39.2666 31.0156 40.7783 28.3672 41.5947L27.7187 41.79L27.0312 41.9189C26.2343 42.0712 25.4336 42.1337 24.6172 42.1337C24.5078 42.1337 24.4023 42.1337 24.2734 42.1337H23.9492C23.6484 42.1337 23.3437 42.2001 23.0429 42.2861C21.2773 42.8447 19.3359 43.1025 16.9648 43.1025Z" stroke="url(#paint1_linear_1_324)" stroke-width="0.227457" stroke-miterlimit="10"/>
</g>
</g>
</g>
</g>
</g>
<g id="Mask group_3">
<mask id="mask5_1_324" style="mask-type:luminance" maskUnits="userSpaceOnUse" x="0" y="0" width="41" height="41">
<g id="Group_6">
<g id="Group_7">
<path id="Vector_32" d="M40.5 0.754883H0.5V40.7549H40.5V0.754883Z" fill="black" fill-opacity="0.8"/>
</g>
</g>
</mask>
<g mask="url(#mask5_1_324)">
<g id="Clip path group_4">
<mask id="mask6_1_324" style="mask-type:luminance" maskUnits="userSpaceOnUse" x="0" y="0" width="41" height="41">
<g id="clip4">
<path id="Vector_33" d="M40.5 0.754883H0.5V40.7549H40.5V0.754883Z" fill="white"/>
</g>
</mask>
<g mask="url(#mask6_1_324)">
<g id="surface9">
<path id="Vector_34" d="M16.9648 41.5752C15.5664 41.5752 14.207 41.4892 13.0859 41.4033L12.8281 41.3798L12.5703 41.3369C12.3984 41.3134 12.2031 41.2939 12.0078 41.2705C10.9102 41.165 9.09766 40.9501 7.07423 40.0009L6.77345 39.8486L6.4922 39.7002C2.54689 37.5205 1.10158 34.2666 0.242204 32.3291C0.175798 32.2002 0.113298 32.0283 0.0273607 31.8759C-0.382795 31.0556 -0.640607 30.2822 -0.859357 29.5908L-0.902326 29.4384L-0.945295 29.3095C-1.50389 27.2627 -1.65623 25.54 -1.39842 23.8369C-1.1367 22.1572 -0.49217 20.583 0.628923 18.9463L1.46877 17.5869C1.62111 17.3486 1.72658 17.0713 1.77345 16.79C2.1797 14.4619 3.28126 12.8252 3.77736 12.0713L3.83986 11.9814L3.86329 11.9385C3.86329 11.9189 3.88283 11.8955 3.88283 11.876C3.90626 11.7666 3.94923 11.6807 3.96876 11.5947C4.09767 10.6455 4.33595 9.70018 4.66017 8.79394L4.74611 8.53612C4.76564 8.49315 4.76564 8.45019 4.80861 8.32128C5.04689 7.60644 5.54298 6.12206 6.83595 4.52831L7.3086 3.96582L7.78516 3.53613C9.05469 2.37207 10.5859 1.50879 12.2227 1.03613C13.1719 0.754881 14.1211 0.583006 15.1133 0.540038H15.3281C15.5 0.540038 15.6523 0.5166 15.8008 0.5166C16.5117 0.5166 17.2031 0.325194 17.8906 0.4541C18.4297 0.559569 18.9687 0.497069 19.4648 0.282225C20.3906 -0.12793 21.6406 -0.280274 23.0664 -0.47168C23.1719 -0.495117 23.2578 -0.495117 23.3242 -0.518555C23.5156 -0.538086 23.8203 -0.581055 24.1641 -0.604492C24.7891 -0.666992 25.7578 -0.733398 26.8164 -0.733398C28.7969 -0.733398 30.4765 -0.47168 31.9648 0.020507L32.0937 0.0634757L32.2031 0.106444C35.4765 1.35644 37.0937 2.99707 38.3672 4.61425C38.4297 4.70019 38.5156 4.78613 38.539 4.8291L38.5586 4.84863L38.7968 5.06347L38.8203 5.10644C39.9179 5.95019 40.8437 6.98144 41.5547 8.1455L41.7734 8.49315L41.9453 8.85644C43.4961 12.0283 43.0234 14.9346 42.8047 16.165L42.7851 16.2275C42.6328 17.1338 42.3984 17.9971 42.0742 18.8564C41.9648 19.6767 41.7734 20.497 41.5117 21.2705C41.082 22.5635 40.457 23.7939 39.6601 24.915C39.1211 25.6884 38.4726 26.4033 37.7851 27.0283C37.4609 27.3291 37.2461 27.7158 37.2031 28.1689C37.1601 28.4931 37.1172 28.7939 37.0742 29.1181C36.5976 31.6377 35.5234 33.3642 35.0039 34.1377L33.7539 35.9502C32.0937 38.083 30.1328 39.4619 27.7617 40.1962L27.2226 40.3681L26.6406 40.4736C25.9531 40.6025 25.2422 40.6689 24.5508 40.6455C24.4453 40.6455 24.3359 40.6455 24.2266 40.6455H24.1406C24.1406 40.6455 24.1211 40.6455 24.0781 40.6455H23.582C23.2578 40.6689 22.9336 40.7119 22.6133 40.8212C21.0391 41.3369 19.207 41.5752 16.9648 41.5752Z" stroke="url(#paint2_linear_1_324)" stroke-width="0.227457" stroke-miterlimit="10"/>
</g>
</g>
</g>
</g>
</g>
<g id="Mask group_4">
<mask id="mask7_1_324" style="mask-type:luminance" maskUnits="userSpaceOnUse" x="0" y="0" width="41" height="41">
<g id="Group_8">
<g id="Group_9">
<path id="Vector_35" d="M40.5 0.754883H0.5V40.7549H40.5V0.754883Z" fill="black" fill-opacity="0.8"/>
</g>
</g>
</mask>
<g mask="url(#mask7_1_324)">
<g id="Clip path group_5">
<mask id="mask8_1_324" style="mask-type:luminance" maskUnits="userSpaceOnUse" x="0" y="0" width="41" height="41">
<g id="clip5">
<path id="Vector_36" d="M40.5 0.754883H0.5V40.7549H40.5V0.754883Z" fill="white"/>
</g>
</mask>
<g mask="url(#mask8_1_324)">
<g id="surface12">
<path id="Vector_37" d="M16.9649 39.7861C15.6289 39.7861 14.3164 39.7001 13.2149 39.6142L13 39.5908L12.7852 39.5712C12.5899 39.5478 12.375 39.5283 12.1602 39.5048C11.125 39.3955 9.5508 39.2236 7.78518 38.3837L7.5469 38.2783L7.33205 38.1455C3.94924 36.2509 2.69924 33.4502 1.87893 31.5947C1.81643 31.4463 1.72659 31.2509 1.66409 31.0986C1.2969 30.3681 1.05862 29.6767 0.867215 29.0322L0.824246 28.9228L0.800809 28.8134C0.304716 27.0478 0.17581 25.54 0.390653 24.1181C0.609403 22.6728 1.19143 21.3135 2.17971 19.872L2.30862 19.7002L2.44143 19.5283C2.52737 19.4189 2.58987 19.3096 2.67581 19.2236L3.1719 18.2978C3.34377 17.9971 3.45315 17.6728 3.49612 17.3291C3.82034 15.2588 4.80862 13.7705 5.26174 13.083C5.28518 13.04 5.32815 12.9971 5.34768 12.9736L5.45705 12.8252C5.50002 12.7392 5.54299 12.6299 5.58596 12.501C5.62893 12.3721 5.69533 12.1767 5.7383 12.0049C5.84377 11.1221 6.05862 10.2588 6.3633 9.41894L6.40627 9.30956L6.44924 9.20409C6.46877 9.11816 6.51174 9.05175 6.55471 8.90331C6.77346 8.23144 7.17971 7.00488 8.28127 5.66894L8.64846 5.21582L9.03518 4.87207C10.1133 3.87988 11.4063 3.16894 12.8047 2.73926C13.625 2.50098 14.4453 2.34863 15.3047 2.30566H15.4766C15.6094 2.30566 15.7383 2.30566 15.8867 2.30566C16.6211 2.30566 17.332 2.3916 18.043 2.58691C18.6484 2.73926 19.293 2.67285 19.8516 2.3916C20.7578 1.96191 21.9648 1.48926 23.3672 1.31348C23.4531 1.29395 23.5391 1.29395 23.6016 1.27051C23.7773 1.25098 24.0547 1.20801 24.4023 1.18457C24.9844 1.12207 25.9102 1.05566 26.8789 1.05566C28.6484 1.05566 30.1328 1.27051 31.4492 1.72363L31.6211 1.80957C34.6367 2.9541 35.9726 4.43847 37.0078 5.75488C37.2461 6.03613 37.2656 6.0791 37.418 6.22753L37.6133 6.40331L37.6758 6.48925C38.1719 6.87597 39.1836 7.67284 40.0703 9.11815L40.2422 9.3955L40.3906 9.67675C41.707 12.3291 41.2969 14.7431 41.1015 15.9072L41.082 15.9697C40.9531 16.8096 40.7148 17.6533 40.3711 18.4502V18.5127C40.2851 19.2666 40.1133 20.0205 39.875 20.7314C39.5078 21.876 38.9687 22.9306 38.2578 23.9033C37.6758 24.7431 36.9648 25.497 36.168 26.1416C35.9726 26.2939 35.8242 26.4892 35.7148 26.7041C35.6094 26.9189 35.543 27.1572 35.5234 27.3916C35.5 27.8681 35.4336 28.3408 35.3476 28.8134C34.9414 30.9931 33.9922 32.5009 33.5156 33.2548L32.5469 34.6767C31.1016 36.6181 29.3789 37.8681 27.2891 38.5127L26.8594 38.6416L26.3828 38.7275C25.8008 38.8369 25.1992 38.8798 24.5938 38.8798C24.5078 38.8798 24.4023 38.8798 24.293 38.8798H24.1641C24.1406 38.8798 24.0977 38.8798 23.9922 38.8798H23.7969L23.3008 38.9033C22.957 38.9228 22.6133 38.9658 22.2891 39.0947C20.8008 39.5712 19.0977 39.7861 16.9649 39.7861Z" stroke="url(#paint3_linear_1_324)" stroke-width="0.213233" stroke-miterlimit="10"/>
</g>
</g>
</g>
</g>
</g>
<g id="Mask group_5">
<mask id="mask9_1_324" style="mask-type:luminance" maskUnits="userSpaceOnUse" x="0" y="0" width="41" height="41">
<g id="Group_10">
<g id="Group_11">
<path id="Vector_38" d="M40.5 0.754883H0.5V40.7549H40.5V0.754883Z" fill="black" fill-opacity="0.8"/>
</g>
</g>
</mask>
<g mask="url(#mask9_1_324)">
<g id="Clip path group_6">
<mask id="mask10_1_324" style="mask-type:luminance" maskUnits="userSpaceOnUse" x="0" y="0" width="41" height="41">
<g id="clip6">
<path id="Vector_39" d="M40.5 0.754883H0.5V40.7549H40.5V0.754883Z" fill="white"/>
</g>
</mask>
<g mask="url(#mask10_1_324)">
<g id="surface15">
<path id="Vector_40" d="M16.9648 37.997C15.6953 37.997 14.4219 37.9111 13.3672 37.8252L13.2148 37.8017L13.0664 37.7822C12.8477 37.7587 12.6133 37.7158 12.3984 37.6962C11.4258 37.5869 10.0898 37.4345 8.58204 36.747L8.23829 36.5752C5.3711 34.958 4.31642 32.5869 3.53908 30.8642C3.45314 30.6884 3.3672 30.497 3.30079 30.3252C2.97658 29.6572 2.76173 29.0322 2.58986 28.4931L2.57033 28.4072L2.50392 28.3408C1.66408 25.3681 1.9883 23.2783 3.62501 20.8838L3.79689 20.626C3.90626 20.4971 4.01173 20.3447 4.12111 20.2158C4.27345 20.0205 4.42189 19.8056 4.59376 19.6142C4.70314 19.4814 4.78907 19.333 4.85157 19.1806L5.04689 18.708C5.13282 18.4931 5.17579 18.2783 5.19923 18.0596C5.3711 16.1416 6.29688 14.7627 6.75001 14.0752C6.79298 14.0322 6.83595 13.9463 6.85938 13.9228L6.96485 13.751L7.00782 13.708C7.07423 13.5986 7.1797 13.3408 7.26563 13.083C7.3086 12.9111 7.39845 12.6299 7.48438 12.3916V12.3721C7.57032 11.5752 7.76173 10.7783 8.04298 10.0205L8.06641 9.958L8.08595 9.89159C8.12891 9.76269 8.17188 9.65722 8.21485 9.50487C8.41016 8.92284 8.73438 7.93066 9.61719 6.833L9.89844 6.48925L10.1758 6.22754C12.2656 4.33301 14.5938 4.18066 15.3711 4.11816H15.5C15.6094 4.11816 15.7148 4.11816 15.8242 4.11816C16.75 4.11816 17.6562 4.30957 18.5156 4.67676C18.668 4.74316 18.8398 4.76269 18.9922 4.76269C19.1641 4.76269 19.3164 4.71972 19.4648 4.63379C20.2617 4.18066 21.707 3.34082 23.5586 3.12598C23.6484 3.10254 23.7344 3.10254 23.7969 3.10254C23.9687 3.08301 24.2266 3.05957 24.5312 3.0166C25.0898 2.97363 25.9297 2.91113 26.8359 2.91113C28.4101 2.91113 29.7031 3.10254 30.8008 3.46973L30.8672 3.49316L30.9297 3.51269C33.5156 4.48144 34.6172 5.71191 35.5429 6.87597C35.7812 7.20019 35.9101 7.3291 36.1679 7.58691L36.3203 7.71582L36.4258 7.84472L36.5117 7.91113C36.9453 8.25488 37.7617 8.87988 38.4961 10.0635L38.625 10.2822L38.7343 10.4971C39.789 12.6533 39.4453 14.5908 39.2734 15.626V15.6885C39.1406 16.4463 38.9258 17.2002 38.625 17.9111L38.6015 17.9736C38.6015 17.9971 38.6015 17.9971 38.582 18.04C38.5586 18.1025 38.5586 18.1689 38.5586 18.2314L38.539 18.3213C38.4726 18.9658 38.3242 19.5908 38.1094 20.1963C37.7851 21.165 37.332 22.0713 36.7265 22.8877C36.1484 23.7275 35.4765 24.4189 34.7461 24.958C34.4219 25.1963 34.164 25.497 33.9687 25.8642C33.7773 26.2275 33.6914 26.6181 33.6914 27.0283C33.6914 27.5205 33.625 28.04 33.539 28.5361C33.1953 30.3877 32.4179 31.6377 31.9219 32.3916L31.2109 33.4502C29.9609 35.1963 28.4726 36.3134 26.6836 36.8759L26.5976 36.8955C26.4492 36.9384 26.2969 36.9814 26.1484 37.0048L26.0391 37.0283C25.543 37.1142 25.0469 37.1572 24.5508 37.1572C24.4648 37.1572 24.3789 37.1572 24.293 37.1572H24.2734C24.2266 37.1572 24.1836 37.1572 24.1406 37.1572C24.0976 37.1572 24.0117 37.1572 23.8398 37.1572H23.7109C23.4726 37.1572 23.1719 37.1767 22.9141 37.1767C22.5469 37.2002 22.2031 37.2627 21.8594 37.3916C20.5664 37.7822 18.9922 37.997 16.9648 37.997Z" stroke="url(#paint4_linear_1_324)" stroke-width="0.19903" stroke-miterlimit="10"/>
</g>
</g>
</g>
</g>
</g>
<g id="Mask group_6">
<mask id="mask11_1_324" style="mask-type:luminance" maskUnits="userSpaceOnUse" x="0" y="0" width="41" height="41">
<g id="Group_12">
<g id="Group_13">
<path id="Vector_41" d="M40.5 0.754883H0.5V40.7549H40.5V0.754883Z" fill="black" fill-opacity="0.8"/>
</g>
</g>
</mask>
<g mask="url(#mask11_1_324)">
<g id="Clip path group_7">
<mask id="mask12_1_324" style="mask-type:luminance" maskUnits="userSpaceOnUse" x="0" y="0" width="41" height="41">
<g id="clip7">
<path id="Vector_42" d="M40.5 0.754883H0.5V40.7549H40.5V0.754883Z" fill="white"/>
</g>
</mask>
<g mask="url(#mask12_1_324)">
<g id="surface18">
<path id="Vector_43" d="M16.9648 36.208C15.7382 36.208 14.5312 36.122 13.496 36.0361H13.3867L13.2812 36.0127C13.0429 35.9697 12.7851 35.9502 12.5468 35.9267C11.6406 35.8213 10.5234 35.7119 9.31637 35.1298L9.18355 35.0634L9.07809 35.0009C6.72653 33.6845 5.84371 31.7041 5.15621 30.1064C5.07028 29.915 4.98434 29.7197 4.8984 29.5049C4.61715 28.9463 4.42184 28.3838 4.2734 27.9111L4.24997 27.8447L4.22653 27.7822C3.53903 25.3252 3.77731 23.7705 5.11325 21.833L5.17575 21.7471L5.24215 21.6611C5.34762 21.5088 5.457 21.3799 5.56637 21.2275C5.91012 20.7783 6.25387 20.3252 6.74996 19.7861C6.85934 19.6767 6.92184 19.5049 6.94527 19.3525L6.96481 18.8564L6.94527 18.665V18.4697C6.98824 16.876 7.78512 15.6885 8.2148 15.0439C8.25777 14.9775 8.32418 14.8916 8.34371 14.8486L8.41012 14.7432L8.47262 14.6572C8.55855 14.5283 8.75387 14.0752 8.92574 13.665C8.99215 13.4932 9.07808 13.1455 9.18355 12.8682C9.20699 12.7822 9.20699 12.7588 9.22652 12.5635C9.29293 11.8955 9.4648 11.2275 9.67965 10.6025L9.70308 10.5596L9.72262 10.5166C9.78902 10.3447 9.83199 10.2158 9.8984 10.0439C10.0703 9.52831 10.3281 8.7705 10.9961 7.93066L11.1914 7.69629L11.3828 7.5205C12.8476 6.20801 14.4218 5.95019 15.5 5.88379H15.5859C15.6718 5.88379 15.7382 5.88379 15.8242 5.88379C16.7265 5.88379 17.8281 6.31347 18.4101 6.59472C18.539 6.66113 18.6914 6.7041 18.8398 6.7041C18.9921 6.7041 19.1406 6.68066 19.2929 6.63769C19.6601 6.50879 20.0039 6.35644 20.3281 6.18457C21.0585 5.75488 22.2656 5.06348 23.7773 4.8916C23.8632 4.87207 23.9257 4.87207 23.9921 4.87207C24.1406 4.84863 24.3788 4.8291 24.6796 4.78613C25.1992 4.74316 25.9726 4.67676 26.8163 4.67676C28.1718 4.67676 29.2929 4.8291 30.1992 5.15332L30.2421 5.17285L30.2851 5.19629C32.4413 6.01269 33.3007 6.93847 34.121 7.99707C34.3788 8.34082 34.5741 8.5791 34.9609 8.92285L35.1327 9.09472C35.2187 9.18066 35.3046 9.24706 35.3906 9.30956C35.7577 9.59081 36.3827 10.0869 36.9218 10.9932L37.0077 11.1221L37.0741 11.2705C37.871 12.8877 37.6132 14.4189 37.4609 15.3252V15.3877C37.3515 16.0127 37.1796 16.6182 36.9218 17.2002C36.8593 17.3486 36.8163 17.501 36.7734 17.6728C36.7499 17.7822 36.7265 17.8877 36.7265 17.9736L36.707 18.0596C36.6406 18.5791 36.5351 19.0947 36.3632 19.5908C36.1015 20.3877 35.7148 21.1416 35.2421 21.8096C34.5077 22.8447 33.6679 23.5791 32.6562 24.0517C32.4179 24.1611 32.2031 24.333 32.0507 24.5713C31.9023 24.7861 31.8163 25.0635 31.7929 25.3252C31.7929 25.4306 31.7929 25.5166 31.7929 25.583C31.8359 26.3564 31.9023 27.2431 31.7265 28.1689C31.4492 29.6767 30.8007 30.6884 30.3281 31.4463C30.3281 31.4463 28.1288 34.5049 26.1249 35.1298L25.9101 35.1963L25.6718 35.2392C25.2851 35.3017 24.8984 35.3447 24.4882 35.3447C24.4218 35.3447 24.3359 35.3447 24.2499 35.3447C24.207 35.3447 24.1406 35.3447 24.0781 35.3447C23.9921 35.3447 23.8632 35.3447 23.6679 35.3681H23.582C22.8046 35.3877 22.0937 35.4111 21.8789 35.4541C21.7734 35.4736 21.664 35.497 21.5546 35.54C20.4999 35.9931 19.0117 36.208 16.9648 36.208Z" stroke="url(#paint5_linear_1_324)" stroke-width="0.184806" stroke-miterlimit="10"/>
</g>
</g>
</g>
</g>
</g>
<g id="Mask group_7">
<mask id="mask13_1_324" style="mask-type:luminance" maskUnits="userSpaceOnUse" x="0" y="0" width="41" height="41">
<g id="Group_14">
<g id="Group_15">
<path id="Vector_44" d="M40.5 0.754883H0.5V40.7549H40.5V0.754883Z" fill="black" fill-opacity="0.8"/>
</g>
</g>
</mask>
<g mask="url(#mask13_1_324)">
<g id="Clip path group_8">
<mask id="mask14_1_324" style="mask-type:luminance" maskUnits="userSpaceOnUse" x="0" y="0" width="41" height="41">
<g id="clip8">
<path id="Vector_45" d="M40.5 0.754883H0.5V40.7549H40.5V0.754883Z" fill="white"/>
</g>
</mask>
<g mask="url(#mask14_1_324)">
<g id="surface21">
<path id="Vector_46" d="M16.9648 34.4384C15.8008 34.4384 14.6367 34.3525 13.6484 34.29H13.5586C13.2812 34.247 13.0234 34.2236 12.7851 34.2041C11.9453 34.1181 11.0586 34.0088 10.1133 33.5791L10.0469 33.5556L9.98437 33.5361C8.15234 32.5009 7.46094 30.9697 6.8164 29.4814C6.72656 29.2666 6.62109 29.0517 6.51172 28.8369C6.29687 28.4072 6.125 27.9306 5.99609 27.4775V27.4345C5.43359 25.4736 5.58594 24.4814 6.62109 22.9736L6.64062 22.9306L6.66406 22.8877C6.79297 22.7392 6.90234 22.5869 7.00781 22.458C7.5039 21.8096 7.93359 21.251 8.90625 20.3447C8.96875 20.2822 9.03515 20.1963 9.05468 20.0869C9.07812 20.001 9.07812 19.8916 9.03515 19.8056L8.86328 19.3096C8.82031 19.1611 8.79687 18.9892 8.79687 18.8369V18.5986C8.83984 17.5205 9.40234 16.6807 9.76562 16.1221C9.83203 16.0361 9.875 15.9502 9.91796 15.8838L9.96093 15.8213L10.0039 15.7549C10.1992 15.4971 10.5234 14.7432 10.6953 14.29C10.7383 14.1377 10.8437 13.7705 10.9531 13.4932C11.0156 13.2783 11.0586 13.0596 11.082 12.8447C11.1484 12.3057 11.2539 11.7666 11.4492 11.2705V11.2275C11.5351 11.0127 11.5976 10.8408 11.6406 10.6689C11.793 10.2158 11.9648 9.70019 12.4414 9.11816L12.5273 9.00879L12.6133 8.92285C13.6484 7.97363 14.7891 7.80176 15.6523 7.73926H15.6953C15.7383 7.73926 15.8008 7.73926 15.8437 7.73926C16.707 7.73926 17.3515 8.08301 17.7851 8.32129L17.8906 8.36426H17.914C18.043 8.42676 18.1289 8.49316 18.2383 8.53613C18.4961 8.66504 18.8203 8.70801 19.0976 8.62207C19.7031 8.46972 20.6289 8.10254 21.2344 7.75879H21.2539C21.9023 7.37207 22.8906 6.80957 24.0547 6.68066C24.1211 6.66113 24.207 6.66113 24.2734 6.66113C24.4023 6.6377 24.6367 6.61816 24.8984 6.59473C25.3711 6.55176 26.1015 6.48926 26.8594 6.48926C28.0234 6.48926 28.9492 6.61816 29.6601 6.85254H29.7031C31.4258 7.50098 32.0742 8.18847 32.7617 9.09472C33.0429 9.46191 33.3242 9.80566 33.8398 10.2588L33.9257 10.3447C34.0547 10.4736 34.207 10.6025 34.3789 10.7314C34.6797 10.9697 35.1132 11.2939 35.4765 11.9189L35.5234 11.9814L35.5664 12.0478C36.1015 13.1689 35.9297 14.2236 35.8007 15.0205V15.0869C35.7148 15.583 35.5859 16.0557 35.3711 16.5322C35.2617 16.79 35.1757 17.0713 35.1328 17.3486C35.1132 17.5205 35.0898 17.6533 35.0703 17.7588L35.0468 17.8447C35.0039 18.2549 34.9179 18.6416 34.789 19.0322C34.5937 19.6572 34.2929 20.2392 33.9062 20.7783C33.2578 21.7236 32.5273 22.3056 31.5547 22.6064C31.082 22.7588 30.6953 23.0596 30.4336 23.4697L30.3476 23.5791L30.2617 23.6846C30.0273 23.9658 30.0898 25.0439 30.1328 25.6885C30.1758 26.4033 30.2187 27.1338 30.0898 27.8252C29.875 29.0088 29.3593 29.8056 28.9062 30.497C28.9062 30.497 27.2226 32.9306 25.6953 33.3838L25.5859 33.4267L25.4765 33.4502C25.1992 33.4931 24.8984 33.5361 24.5937 33.5361C24.5312 33.5361 24.4648 33.5361 24.3789 33.5361C24.3164 33.5361 24.25 33.5361 24.164 33.5361C24.0547 33.5361 23.9062 33.5361 23.6484 33.5556H23.6015C22.5898 33.5986 21.9648 33.622 21.6211 33.6845C21.3828 33.7275 21.168 33.7939 20.9531 33.8799C20.0273 34.247 18.7773 34.4384 16.9648 34.4384Z" stroke="url(#paint6_linear_1_324)" stroke-width="0.184806" stroke-miterlimit="10"/>
</g>
</g>
</g>
</g>
</g>
</g>
</g>
</g>
</g>
</g>
</g>
</g>
</g>
</g>
</g>
<defs>
<radialGradient id="paint0_radial_1_324" cx="0" cy="0" r="1" gradientUnits="userSpaceOnUse" gradientTransform="translate(20.5008 22.8443) rotate(90) scale(22.4667)">
<stop offset="0.1667" stop-color="#073183"/>
<stop offset="1" stop-color="#0054F9"/>
</radialGradient>
<linearGradient id="paint1_linear_1_324" x1="-2.3009" y1="-3.74186" x2="43.524" y2="44.354" gradientUnits="userSpaceOnUse">
<stop offset="0.2057" stop-color="#89D0FF"/>
<stop offset="0.3984" stop-color="#EBBF9A"/>
<stop offset="0.6015" stop-color="#EB8280"/>
<stop offset="0.8411" stop-color="#A281FF"/>
</linearGradient>
<linearGradient id="paint2_linear_1_324" x1="-0.523904" y1="-1.67242" x2="41.7216" y2="42.8481" gradientUnits="userSpaceOnUse">
<stop offset="0.2057" stop-color="#89D0FF"/>
<stop offset="0.3984" stop-color="#EBBF9A"/>
<stop offset="0.6015" stop-color="#EB80DA"/>
<stop offset="0.8411" stop-color="#A281FF"/>
</linearGradient>
<linearGradient id="paint3_linear_1_324" x1="1.27082" y1="0.116868" x2="39.9362" y2="41.0611" gradientUnits="userSpaceOnUse">
<stop offset="0.2057" stop-color="#89D0FF"/>
<stop offset="0.3984" stop-color="#EBBF9A"/>
<stop offset="0.6015" stop-color="#EB8280"/>
<stop offset="0.8411" stop-color="#A281FF"/>
</linearGradient>
<linearGradient id="paint4_linear_1_324" x1="3.06307" y1="1.91236" x2="38.1404" y2="39.2693" gradientUnits="userSpaceOnUse">
<stop offset="0.2057" stop-color="#89D0FF"/>
<stop offset="0.3984" stop-color="#EBBF9A"/>
<stop offset="0.6015" stop-color="#EB80E7"/>
<stop offset="0.8411" stop-color="#A281FF"/>
</linearGradient>
<linearGradient id="paint5_linear_1_324" x1="4.84484" y1="3.71131" x2="36.3408" y2="37.4781" gradientUnits="userSpaceOnUse">
<stop offset="0.2057" stop-color="#89D0FF"/>
<stop offset="0.3984" stop-color="#EBBF9A"/>
<stop offset="0.6015" stop-color="#EB80D3"/>
<stop offset="0.8411" stop-color="#A281FF"/>
</linearGradient>
<linearGradient id="paint6_linear_1_324" x1="6.64983" y1="5.48861" x2="34.5614" y2="35.679" gradientUnits="userSpaceOnUse">
<stop offset="0.2057" stop-color="#89D0FF"/>
<stop offset="0.3984" stop-color="#EBBF9A"/>
<stop offset="0.6015" stop-color="#A280EB"/>
<stop offset="0.8411" stop-color="#A281FF"/>
</linearGradient>
<clipPath id="clip0_1_324">
<rect width="40" height="40" fill="white" transform="translate(0.5 0.754883)"/>
</clipPath>
</defs>
</svg>
