<svg width="25" height="25" viewBox="0 0 25 25" fill="none" xmlns="http://www.w3.org/2000/svg">
<g id="ic_avalanche_24.4f4088f4.svg" clip-path="url(#clip0_1_18)">
<path id="Vector" d="M17.1363 24.5H8.32376C4.12376 24.5 0.730011 21.1063 0.730011 16.9062V8.09375C0.730011 3.89375 4.12376 0.5 8.32376 0.5H17.1363C21.3363 0.5 24.73 3.89375 24.73 8.09375V16.9062C24.73 21.1063 21.3363 24.5 17.1363 24.5Z" fill="url(#paint0_linear_1_18)"/>
<path id="Vector_2" opacity="0.2" d="M13.33 17.225V21.4813L18.6175 14.075L13.33 17.225ZM18.4113 12.7063L13.33 4.26875V10.4L18.4113 12.7063ZM13.33 10.8688V16.1188L18.3738 13.175L13.33 10.8688ZM7.81752 12.7063L12.8988 4.26875V10.4L7.81752 12.7063ZM12.8988 10.8688V16.1188L7.85502 13.175L12.8988 10.8688ZM12.88 17.225V21.4813L7.61127 14.075L12.88 17.225Z" fill="black"/>
<path id="Vector_3" d="M12.955 16.85V21.1063L18.2425 13.7L12.955 16.85ZM18.0363 12.3313L12.955 3.89375V10.025L18.0363 12.3313ZM12.955 10.4938V15.7438L17.9988 12.8L12.955 10.4938ZM7.44252 12.3313L12.5238 3.89375V10.025L7.44252 12.3313ZM12.5238 10.4938V15.7438L7.48002 12.8L12.5238 10.4938ZM12.505 16.85V21.1063L7.23627 13.7L12.505 16.85Z" fill="white"/>
</g>
<defs>
<linearGradient id="paint0_linear_1_18" x1="2.95189" y1="2.72188" x2="22.5081" y2="22.2781" gradientUnits="userSpaceOnUse">
<stop stop-color="#6E75B8"/>
<stop offset="1" stop-color="#495B9D"/>
</linearGradient>
<clipPath id="clip0_1_18">
<rect width="24" height="24" fill="white" transform="translate(0.730011 0.5)"/>
</clipPath>
</defs>
</svg>
