<svg width="41" height="41" viewBox="0 0 41 41" fill="none" xmlns="http://www.w3.org/2000/svg">
<g id="ic_wbtc_40.8330ef8d.svg" clip-path="url(#clip0_1_285)">
<path id="Vector" fill-rule="evenodd" clip-rule="evenodd" d="M20.5 0.504883C31.543 0.504883 40.5 9.45888 40.5 20.5049C40.5 31.5479 31.543 40.5049 20.5 40.5049C9.454 40.5049 0.5 31.5479 0.5 20.5049C0.5 9.45888 9.454 0.504883 20.5 0.504883Z" fill="white"/>
<path id="Vector_2" fill-rule="evenodd" clip-rule="evenodd" d="M33.115 8.89892L32.018 9.99792C34.6387 12.8641 36.0919 16.6072 36.0919 20.4909C36.0919 24.3746 34.6387 28.1177 32.018 30.9839L33.115 32.0809C39.159 25.5259 39.159 15.4299 33.115 8.87392V8.89892ZM10.015 8.99492C15.955 3.56292 25.059 3.56292 31.001 8.99492L32.098 7.89792C25.542 1.85092 15.445 1.85092 8.89098 7.89792L10.014 8.99492H10.015ZM8.98998 30.9929C3.56398 25.0549 3.56398 15.9589 8.98998 10.0189L7.89298 8.92192C1.84598 15.4779 1.84598 25.5739 7.89298 32.1269L8.98998 30.9929ZM30.988 32.0069C28.1227 34.6282 24.3799 36.082 20.4965 36.082C16.613 36.082 12.8703 34.6282 10.005 32.0069L8.90498 33.1069C15.46 39.1509 25.558 39.1509 32.113 33.1069L30.988 32.0069Z" fill="#5A5564"/>
<path id="Vector_3" fill-rule="evenodd" clip-rule="evenodd" d="M23.828 17.7079C23.828 19.9039 20.394 19.6379 19.302 19.6379V15.7679C20.394 15.7679 23.828 15.4249 23.828 17.7079ZM24.724 23.7159C24.724 26.1159 20.61 25.8419 19.298 25.8419V21.5819C20.61 21.5839 24.724 21.2079 24.724 23.7159ZM27.434 16.8399C27.214 14.5479 25.238 13.7799 22.737 13.5439V10.3849H20.805V13.4819C20.295 13.4819 19.777 13.4819 19.258 13.4989V10.3859H17.337V13.5629H13.42V15.6319C13.42 15.6319 14.849 15.6069 14.826 15.6319C15.0833 15.6043 15.3414 15.6774 15.5461 15.8359C15.7508 15.9943 15.8862 16.2258 15.924 16.4819V25.1839C15.9114 25.3661 15.8282 25.5362 15.692 25.6579C15.5531 25.776 15.374 25.8362 15.192 25.8259C15.215 25.8459 13.787 25.8259 13.787 25.8259L13.402 28.1349H17.303V31.3649H19.238V28.1829H20.781V31.3479H22.718V28.1579C25.985 27.9579 28.261 27.1539 28.547 24.0959C28.777 21.6359 27.621 20.5379 25.772 20.0949C26.897 19.5229 27.602 18.5159 27.434 16.8399Z" fill="#F09242"/>
<path id="Vector_4" fill-rule="evenodd" clip-rule="evenodd" d="M20.497 2.06488C10.319 2.07088 2.076 10.3219 2.077 20.4989C2.08 30.6749 10.33 38.9219 20.505 38.9219C30.681 38.9239 38.933 30.6759 38.937 20.4999C38.923 10.3249 30.674 2.07788 20.494 2.07488V2.06488H20.497ZM20.497 40.5049C9.452 40.5029 0.497001 31.5479 0.500001 20.5049C0.500001 9.45788 9.454 0.504883 20.498 0.504883C31.542 0.504883 40.498 9.45688 40.5 20.4999C40.489 31.5449 31.538 40.4949 20.497 40.5049Z" fill="#282138"/>
</g>
<defs>
<clipPath id="clip0_1_285">
<rect width="40" height="40" fill="white" transform="translate(0.5 0.504883)"/>
</clipPath>
</defs>
</svg>
