<svg width="41" height="41" viewBox="0 0 41 41" fill="none" xmlns="http://www.w3.org/2000/svg">
<g id="ic_cost.b4a729d3.svg" clip-path="url(#clip0_1_340)">
<g id="ic_cost">
<path id="Path 171" d="M19.6288 8.15033C19.5205 7.9986 19.3775 7.87494 19.2117 7.78962C19.046 7.7043 18.8622 7.65979 18.6758 7.65979C18.4894 7.65979 18.3057 7.7043 18.1399 7.78962C17.9741 7.87494 17.8311 7.9986 17.7228 8.15033C15.5308 11.3223 10.3178 19.2283 10.3178 22.6963C10.3736 24.8582 11.2851 26.9097 12.8522 28.4C14.4193 29.8904 16.5138 30.698 18.6758 30.6453C20.8378 30.698 22.9323 29.8904 24.4994 28.4C26.0665 26.9097 26.978 24.8582 27.0338 22.6963C27.0338 19.2283 21.8178 11.3223 19.6288 8.15033Z" fill="#4E09F8"/>
<path id="Path 174" d="M20.2658 18.6873C20.2648 18.5205 20.198 18.3609 20.0801 18.243C19.9622 18.1251 19.8026 18.0584 19.6358 18.0573H19.0508V13.0173C19.0498 12.8505 18.983 12.6909 18.8651 12.573C18.7472 12.4551 18.5876 12.3884 18.4208 12.3873H16.6208C16.5106 12.3891 16.4032 12.4224 16.3114 12.4834C16.2196 12.5444 16.1472 12.6304 16.1028 12.7313L15.4728 13.9013C15.4241 13.9985 15.4012 14.1065 15.4062 14.2151C15.4113 14.3237 15.4442 14.4291 15.5018 14.5213C15.5579 14.612 15.636 14.687 15.7288 14.7395C15.8216 14.7919 15.9262 14.8201 16.0328 14.8213H16.6198V18.0603H16.0348C15.868 18.0614 15.7084 18.1281 15.5905 18.246C15.4726 18.3639 15.4059 18.5235 15.4048 18.6903V19.8593C15.4059 20.0261 15.4726 20.1857 15.5905 20.3036C15.7084 20.4215 15.868 20.4883 16.0348 20.4893H19.6348C19.8016 20.4883 19.9612 20.4215 20.0791 20.3036C20.197 20.1857 20.2638 20.0261 20.2648 19.8593L20.2658 18.6873ZM32.4148 8.6583C32.424 8.15171 32.2875 7.65314 32.0216 7.22184C31.7557 6.79055 31.3715 6.44466 30.9148 6.2253C29.2312 5.46494 27.402 5.08101 25.5548 5.1003C22.8238 5.22558 20.1217 5.71422 17.5198 6.5533C15.1268 7.33238 12.6412 7.79169 10.1278 7.9193C8.95107 7.92897 7.78098 7.74207 6.66581 7.3663C6.39717 7.27207 6.11449 7.22405 5.82981 7.2243C5.13888 7.23614 4.48087 7.5216 4.00018 8.01805C3.51948 8.51449 3.25537 9.18135 3.26581 9.8723V24.2133C3.25665 24.7199 3.39313 25.2185 3.65903 25.6498C3.92493 26.0811 4.30908 26.4269 4.76581 26.6463C6.44939 27.4067 8.27858 27.7906 10.1258 27.7713C12.8584 27.6468 15.5623 27.1585 18.1658 26.3193C20.5588 25.5402 23.0444 25.0809 25.5578 24.9533C26.7352 24.9431 27.9059 25.1297 29.0218 25.5053C29.2904 25.5995 29.5731 25.6476 29.8578 25.6473C30.549 25.6339 31.2067 25.347 31.6868 24.8495C32.1668 24.352 32.4301 23.6845 32.4188 22.9933L32.4148 8.6583Z" fill="#03D1CF" fill-opacity="0.99"/>
<path id="Path 175" d="M26.1168 26.2103C26.1158 26.0435 26.0491 25.8839 25.9311 25.7659C25.8132 25.648 25.6536 25.5813 25.4868 25.5803H24.9018V20.5403C24.9008 20.3735 24.8341 20.2139 24.7161 20.0959C24.5982 19.978 24.4386 19.9113 24.2718 19.9103H22.4718C22.3616 19.912 22.2542 19.9454 22.1624 20.0063C22.0706 20.0673 21.9982 20.1534 21.9538 20.2543L21.3238 21.4243C21.2751 21.5214 21.2522 21.6295 21.2573 21.738C21.2623 21.8466 21.2952 21.9521 21.3528 22.0443C21.4089 22.1349 21.487 22.21 21.5798 22.2624C21.6726 22.3149 21.7772 22.343 21.8838 22.3443H22.4708V25.5833H21.8858C21.719 25.5843 21.5594 25.651 21.4415 25.7689C21.3236 25.8869 21.2569 26.0465 21.2558 26.2133V27.3823C21.2569 27.549 21.3236 27.7086 21.4415 27.8266C21.5594 27.9445 21.719 28.0112 21.8858 28.0123H25.4858C25.6526 28.0112 25.8122 27.9445 25.9301 27.8266C26.0481 27.7086 26.1148 27.549 26.1158 27.3823L26.1168 26.2103ZM38.2658 16.1813C38.275 15.6747 38.1385 15.1761 37.8726 14.7448C37.6067 14.3135 37.2225 13.9676 36.7658 13.7483C35.0822 12.9879 33.253 12.604 31.4058 12.6233C28.6748 12.7485 25.9727 13.2372 23.3708 14.0763C20.9778 14.8553 18.4922 15.3146 15.9788 15.4423C14.8021 15.4519 13.632 15.265 12.5168 14.8893C12.2482 14.795 11.9655 14.747 11.6808 14.7473C10.9899 14.7591 10.3319 15.0446 9.85118 15.541C9.37049 16.0374 9.10638 16.7043 9.11681 17.3953V31.7363C9.10765 32.2428 9.24413 32.7414 9.51004 33.1727C9.77594 33.604 10.1601 33.9499 10.6168 34.1693C12.3004 34.9296 14.1296 35.3135 15.9768 35.2943C18.7094 35.1697 21.4133 34.6814 24.0168 33.8423C26.4099 33.0632 28.8954 32.6039 31.4088 32.4763C32.5862 32.466 33.7569 32.6526 34.8728 33.0283C35.1415 33.1225 35.4241 33.1705 35.7088 33.1703C36.4 33.1568 37.0577 32.87 37.5378 32.3725C38.0178 31.875 38.2811 31.2075 38.2698 30.5163L38.2658 16.1813Z" fill="#303FD0"/>
<g id="Intersection 2" style="mix-blend-mode:screen">
<path d="M9.11581 27.7373V17.3953C9.10537 16.7048 9.36904 16.0383 9.84906 15.5417C10.3291 15.0452 10.9863 14.7592 11.6768 14.7463C11.9616 14.7463 12.2443 14.7946 12.5128 14.8893C13.6283 15.265 14.7988 15.4516 15.9758 15.4413C18.4892 15.3137 20.9748 14.8544 23.3678 14.0753C25.9701 13.2363 28.6725 12.7477 31.4038 12.6223C31.7451 12.6223 32.0825 12.634 32.4158 12.6573V22.9933C32.4273 23.6849 32.1641 24.3528 31.6838 24.8505C31.2035 25.3483 30.5454 25.6352 29.8538 25.6483C29.5695 25.6483 29.2872 25.6003 29.0188 25.5063C27.9026 25.1306 26.7315 24.9441 25.5538 24.9543C23.0399 25.0821 20.554 25.5421 18.1608 26.3223C15.5588 27.161 12.8567 27.6493 10.1258 27.7743C9.78581 27.7723 9.44914 27.76 9.11581 27.7373Z" fill="#03D1CF" fill-opacity="0.99"/>
</g>
</g>
</g>
<defs>
<clipPath id="clip0_1_340">
<rect width="40" height="40" fill="white" transform="translate(0.265808 0.197266)"/>
</clipPath>
</defs>
</svg>
