<svg width="24" height="28" viewBox="0 0 24 28" fill="none" xmlns="http://www.w3.org/2000/svg">
<g id="ic_discord.be4d716c.svg" clip-path="url(#clip0_1_1035)">
<path id="Vector" d="M15.8962 13.5223C15.913 13.1413 15.7778 12.7693 15.5203 12.488C15.2628 12.2067 14.9041 12.0392 14.5232 12.0223C14.3342 12.0301 14.1486 12.0752 13.977 12.1548C13.8055 12.2345 13.6514 12.3473 13.5234 12.4866C13.3955 12.6259 13.2964 12.7891 13.2316 12.9669C13.1669 13.1446 13.1378 13.3333 13.1462 13.5223C13.1318 13.9033 13.2683 14.2746 13.5262 14.5555C13.784 14.8364 14.1423 15.0041 14.5232 15.0223C14.9041 15.0054 15.2628 14.8379 15.5203 14.5566C15.7778 14.2753 15.913 13.9033 15.8962 13.5223ZM9.59616 12.0223C9.40717 12.0301 9.22159 12.0752 9.05004 12.1548C8.8785 12.2345 8.72435 12.3473 8.59644 12.4866C8.46853 12.6259 8.36936 12.7891 8.30462 12.9669C8.23988 13.1446 8.21084 13.3333 8.21916 13.5223C8.20473 13.9026 8.34075 14.2734 8.59775 14.5541C8.85474 14.8349 9.21201 15.0031 9.59216 15.0223C9.78114 15.0144 9.96672 14.9694 10.1383 14.8897C10.3098 14.8101 10.464 14.6973 10.5919 14.558C10.7198 14.4186 10.8189 14.2554 10.8837 14.0777C10.9484 13.9 10.9775 13.7113 10.9692 13.5223C10.9786 13.3331 10.9503 13.1439 10.8859 12.9657C10.8216 12.7875 10.7225 12.6239 10.5943 12.4843C10.4662 12.3448 10.3117 12.232 10.1396 12.1527C9.96757 12.0734 9.78148 12.0291 9.59216 12.0223H9.59616ZM23.8522 3.47729C23.8531 3.11292 23.7822 2.75194 23.6436 2.41496C23.505 2.07799 23.3013 1.77162 23.0443 1.51337C22.7872 1.25512 22.4818 1.05003 22.1455 0.909836C21.8092 0.769639 21.4485 0.697076 21.0842 0.696289H2.99116C2.6267 0.697076 2.26597 0.769672 1.92958 0.909931C1.5932 1.05019 1.28775 1.25536 1.03069 1.51372C0.77363 1.77208 0.570002 2.07856 0.431441 2.41565C0.292881 2.75274 0.222104 3.11383 0.223156 3.47829V21.7303C0.222236 22.0947 0.29311 22.4556 0.431729 22.7926C0.570348 23.1296 0.773997 23.436 1.03104 23.6942C1.28809 23.9525 1.5935 24.1575 1.92982 24.2977C2.26614 24.4379 2.62678 24.5105 2.99116 24.5113H18.3002L17.5842 22.0113C21.5352 25.6843 20.4472 24.6893 23.8482 27.6953L23.8522 3.47729ZM20.0052 16.2773C19.5358 16.9299 18.9141 17.458 18.1941 17.8156C17.4742 18.1732 16.6778 18.3496 15.8742 18.3293C15.8742 18.3293 15.3882 17.7493 14.9832 17.2353C15.9605 17.004 16.8247 16.4348 17.4232 15.6283C16.9377 15.9528 16.4171 16.2211 15.8712 16.4283C14.5193 16.9788 13.0619 17.2217 11.6045 17.1394C10.1472 17.057 8.72642 16.6516 7.44516 15.9523C7.41816 15.9343 7.09016 15.7523 6.89116 15.6143C7.4691 16.4045 8.30491 16.9679 9.25416 17.2073C8.85416 17.7203 8.35416 18.3283 8.35416 18.3283C7.55165 18.3504 6.75602 18.1748 6.03737 17.817C5.31873 17.4591 4.69912 16.93 4.23316 16.2763C4.27692 13.5393 4.94164 10.848 6.17716 8.40529C7.26431 7.55169 8.58962 7.05657 9.97016 6.98829L10.1052 7.15029C8.80597 7.47287 7.59387 8.07789 6.55516 8.92229C6.55516 8.92229 6.85516 8.76029 7.35516 8.53129C8.9547 7.82319 10.695 7.4903 12.443 7.55807C14.1909 7.62583 15.9002 8.09247 17.4402 8.92229C16.4535 8.11905 15.3076 7.53449 14.0782 7.20729L14.2672 6.99129C15.6477 7.05957 16.973 7.55469 18.0602 8.40829C19.2942 10.8503 19.9579 13.5405 20.0012 16.2763L20.0052 16.2773Z" fill="#91929E"/>
</g>
<defs>
<clipPath id="clip0_1_1035">
<rect width="23.625" height="27" fill="white" transform="translate(0.223145 0.697266)"/>
</clipPath>
</defs>
</svg>
