<svg width="21" height="21" viewBox="0 0 21 21" fill="none" xmlns="http://www.w3.org/2000/svg">
<g id="ic_eth_24.6b1d8a1d.svg" clip-path="url(#clip0_1_1095)">
<path id="Vector" d="M19.7197 13.1162C19.2415 15.0353 18.2049 16.7694 16.7411 18.0993C15.2772 19.4292 13.4519 20.2951 11.4959 20.5876C9.53994 20.8801 7.54115 20.5859 5.75234 19.7424C3.96353 18.8988 2.46505 17.5438 1.4464 15.8485C0.427755 14.1533 -0.0653025 12.1941 0.0295846 10.2186C0.124472 8.2432 0.803042 6.34025 1.97948 4.75046C3.15592 3.16068 4.77738 1.95547 6.6388 1.28725C8.50022 0.61903 10.518 0.517818 12.437 0.996412C15.0098 1.63808 17.2223 3.27539 18.5881 5.54823C19.9538 7.82107 20.3608 10.5433 19.7197 13.1162Z" fill="white"/>
<g id="Group">
<path id="Vector_2" d="M10.0196 3.72034L9.92627 4.03864V13.267L10.0196 13.3604L14.3034 10.8281L10.0196 3.72034Z" fill="#343434"/>
<path id="Vector_3" d="M10.0196 3.72034L5.73584 10.8281L10.0196 13.3604V3.72034Z" fill="#8C8C8C"/>
<path id="Vector_4" d="M10.0171 14.1711L9.9646 14.2353V17.5225L10.0171 17.6766L14.3034 11.6396L10.0171 14.1711Z" fill="#3C3C3B"/>
<path id="Vector_5" d="M10.0196 17.6775V14.172L5.73584 11.6405L10.0196 17.6775Z" fill="#8C8C8C"/>
<path id="Vector_6" d="M10.0198 13.3604L14.3036 10.8281L10.0198 8.88074V13.3604Z" fill="#141414"/>
<path id="Vector_7" d="M5.73584 10.8281L10.0196 13.3604V8.88074L5.73584 10.8281Z" fill="#393939"/>
</g>
</g>
<defs>
<clipPath id="clip0_1_1095">
<rect width="19.9983" height="20" fill="white" transform="translate(0.0212402 0.697266)"/>
</clipPath>
</defs>
</svg>
