<svg width="41" height="41" viewBox="0 0 41 41" fill="none" xmlns="http://www.w3.org/2000/svg">
<g id="ic_eth_40.5e255508.svg" clip-path="url(#clip0_1_242)">
<path id="Vector" d="M39.8976 25.0928C38.9409 28.9308 36.8677 32.3988 33.9399 35.0584C31.0122 37.718 27.3615 39.4496 23.4496 40.0342C19.5377 40.6189 15.5403 40.0303 11.9629 38.343C8.38549 36.6557 5.38882 33.9453 3.35187 30.5548C1.31493 27.1643 0.329193 23.2458 0.519344 19.295C0.709495 15.3443 2.06699 11.5386 4.42014 8.35936C6.77329 5.18012 10.0164 2.77012 13.7393 1.43414C17.4622 0.0981681 21.4977 -0.103766 25.3354 0.853879C30.4803 2.13774 34.9047 5.41251 37.6356 9.95801C40.3664 14.5035 41.18 19.9475 39.8976 25.0928Z" fill="white"/>
<g id="Group">
<path id="Vector_2" d="M20.497 6.30121L20.31 6.93713V25.3938L20.497 25.5808L29.0639 20.5164L20.497 6.30121Z" fill="#343434"/>
<path id="Vector_3" d="M20.497 6.30121L11.9301 20.5164L20.497 25.5808V6.30121Z" fill="#8C8C8C"/>
<path id="Vector_4" d="M20.498 27.2026L20.392 27.3316V33.9058L20.498 34.2137L29.0699 22.1412L20.498 27.2026Z" fill="#3C3C3B"/>
<path id="Vector_5" d="M20.497 34.2137V27.2026L11.9301 22.1412L20.497 34.2137Z" fill="#8C8C8C"/>
<path id="Vector_6" d="M20.497 25.5798L29.0639 20.5155L20.497 16.621V25.5798Z" fill="#141414"/>
<path id="Vector_7" d="M11.9301 20.5165L20.497 25.5809V16.6219L11.9301 20.5165Z" fill="#393939"/>
</g>
</g>
<defs>
<clipPath id="clip0_1_242">
<rect width="39.995" height="40" fill="white" transform="translate(0.502502 0.254944)"/>
</clipPath>
</defs>
</svg>
