<svg width="33" height="33" viewBox="0 0 33 33" fill="none" xmlns="http://www.w3.org/2000/svg">
<g id="ic_github.dbd4de8a.svg" clip-path="url(#clip0_1_1021)">
<path id="Vector" d="M11.7798 23.7323C11.7798 23.6113 11.6428 23.5263 11.4798 23.5423C11.3268 23.5423 11.2058 23.6263 11.2058 23.7323C11.2058 23.8533 11.3268 23.9383 11.5058 23.9223C11.6578 23.9213 11.7798 23.8373 11.7798 23.7323ZM10.1398 23.4953C10.1028 23.6003 10.2088 23.7223 10.3668 23.7533C10.4242 23.7816 10.4905 23.7865 10.5515 23.7669C10.6125 23.7473 10.6635 23.7048 10.6938 23.6483C10.7258 23.5433 10.6248 23.4213 10.4668 23.3743C10.4068 23.3527 10.3412 23.3529 10.2814 23.3748C10.2216 23.3968 10.1715 23.4391 10.1398 23.4943V23.4953ZM12.4698 23.4003C12.3168 23.4373 12.2118 23.5373 12.2268 23.6583C12.2428 23.7633 12.3798 23.8323 12.5378 23.7953C12.6958 23.7583 12.7958 23.6583 12.7808 23.5523C12.7658 23.4463 12.6228 23.3893 12.4698 23.4003ZM15.9398 3.2003C14.2385 3.16451 12.5476 3.47246 10.9681 4.10569C9.38874 4.73893 7.95339 5.68442 6.74807 6.88554C5.54274 8.08666 4.59224 9.5187 3.9535 11.0959C3.31476 12.6731 3.00091 14.3629 3.03075 16.0643C3.00854 18.8388 3.85978 21.55 5.46391 23.8139C7.06805 26.0777 9.34376 27.7796 11.9688 28.6783C12.6438 28.7993 12.8808 28.3783 12.8808 28.0403C12.8808 27.7133 12.8648 25.9103 12.8648 24.8023C12.8648 24.8023 9.17375 25.5933 8.39775 23.2313C8.39775 23.2313 7.79775 21.6963 6.93175 21.3013C6.93175 21.3013 5.72375 20.4733 7.01575 20.4893C7.43651 20.5457 7.83879 20.6975 8.19185 20.9333C8.5449 21.169 8.83938 21.4823 9.05275 21.8493C9.22902 22.1778 9.46936 22.4676 9.75958 22.7015C10.0498 22.9355 10.384 23.1089 10.7424 23.2114C11.1007 23.314 11.4761 23.3436 11.8461 23.2986C12.2162 23.2536 12.5734 23.1348 12.8968 22.9493C12.965 22.2774 13.2631 21.6497 13.7408 21.1723C10.7928 20.8453 7.81875 20.4183 7.81875 15.3453C7.7897 14.7684 7.88594 14.192 8.10086 13.6559C8.31577 13.1197 8.64427 12.6364 9.06375 12.2393C8.66418 11.0706 8.71301 9.79507 9.20075 8.6603C10.3008 8.3173 12.8398 10.0843 12.8398 10.0843C13.9185 9.78608 15.0326 9.63538 16.1518 9.6363C17.2709 9.63538 18.3851 9.78608 19.4638 10.0843C19.4638 10.0843 22.0008 8.3123 23.1028 8.6603C23.5912 9.79561 23.64 11.072 23.2398 12.2413C23.675 12.632 24.0217 13.1113 24.2564 13.647C24.4912 14.1827 24.6086 14.7625 24.6008 15.3473C24.6008 20.4363 21.4948 20.8423 18.5468 21.1743C18.8645 21.4931 19.1094 21.8768 19.2648 22.2992C19.4202 22.7216 19.4822 23.1726 19.4468 23.6213C19.4418 25.4003 19.4308 27.6003 19.4308 28.0303C19.4308 28.3733 19.6738 28.7893 20.3428 28.6683C22.959 27.7711 25.2242 26.0689 26.8137 23.8056C28.4033 21.5422 29.2357 18.8338 29.1918 16.0683C29.184 14.3481 28.8331 12.6467 28.1596 11.0638C27.4861 9.48094 26.5035 8.04836 25.2694 6.84999C24.0353 5.65162 22.5744 4.71156 20.9724 4.08486C19.3704 3.45817 17.6594 3.15745 15.9398 3.2003ZM8.15675 21.3853C8.08775 21.4383 8.10375 21.5593 8.19375 21.6593C8.27775 21.7433 8.39975 21.7803 8.46775 21.7123C8.53675 21.6593 8.52075 21.5383 8.43075 21.4383C8.34675 21.3533 8.22475 21.3163 8.15675 21.3853ZM7.58675 20.9583C7.54975 21.0273 7.60275 21.1113 7.70775 21.1643C7.72469 21.1769 7.74399 21.1859 7.76449 21.1909C7.785 21.1959 7.8063 21.1966 7.82712 21.1932C7.84793 21.1897 7.86784 21.1821 7.88564 21.1708C7.90345 21.1595 7.91879 21.1447 7.93075 21.1273C7.96775 21.0583 7.91475 20.9743 7.80975 20.9213C7.70875 20.8893 7.62375 20.9053 7.58675 20.9583ZM9.29575 22.8353C9.21175 22.9043 9.24275 23.0623 9.36475 23.1623C9.48575 23.2833 9.63875 23.2993 9.70775 23.2153C9.77675 23.1463 9.74475 22.9883 9.63875 22.8883C9.52275 22.7673 9.36375 22.7513 9.29575 22.8353ZM8.69575 22.0603C8.61175 22.1133 8.61175 22.2503 8.69575 22.3713C8.77975 22.4923 8.92275 22.5453 8.99575 22.4923C9.03687 22.4478 9.0597 22.3894 9.0597 22.3288C9.0597 22.2682 9.03687 22.2098 8.99575 22.1653C8.91575 22.0443 8.77975 21.9913 8.69575 22.0603Z" fill="#91929E"/>
</g>
<defs>
<clipPath id="clip0_1_1021">
<rect width="32" height="32" fill="white" transform="translate(0.0307617 0.197266)"/>
</clipPath>
</defs>
</svg>
