<svg width="161" height="162" viewBox="0 0 161 162" fill="none" xmlns="http://www.w3.org/2000/svg">
<g id="Group">
<g id="Group_2">
<path id="Vector" d="M80.5 1.21997C101.689 1.21997 122.012 9.62576 137.01 24.5928C152.008 39.5599 160.456 59.8655 160.5 81.0541C160.544 102.243 152.18 122.583 137.244 137.612C122.308 152.641 102.02 161.131 80.8318 161.219L80.8027 154.219C100.137 154.139 118.65 146.392 132.279 132.678C145.908 118.964 153.54 100.403 153.5 81.0686C153.46 61.7341 145.751 43.2051 132.065 29.5477C118.379 15.8903 99.8346 8.21997 80.5 8.21997V1.21997Z" fill="#6062A6" stroke="#6062A6"/>
</g>
<g id="Group_3">
<path id="Vector_2" d="M78.0396 161.182C57.2869 160.544 37.5952 151.862 23.126 136.971C8.65666 122.081 0.543227 102.148 0.500172 81.3858C0.457118 60.6233 8.48781 40.6573 22.8952 25.707C37.3026 10.7567 56.9581 1.99328 77.708 1.26868L77.9523 8.26441C59.018 8.92561 41.0824 16.9222 27.9356 30.5644C14.7889 44.2065 7.46087 62.4255 7.50016 81.3713C7.53944 100.317 14.943 118.506 28.1462 132.093C41.3494 145.681 59.318 153.603 78.2549 154.185L78.0396 161.182Z" fill="#2775CA" stroke="#2775CA"/>
</g>
</g>
</svg>
