<svg width="162" height="162" viewBox="0 0 162 162" fill="none" xmlns="http://www.w3.org/2000/svg">
<g id="Group">
<g id="Group_2">
<path id="Vector" d="M81 1.21997C100.688 1.21997 119.684 8.47966 134.354 21.6098C149.024 34.74 158.337 52.8185 160.511 72.3857C162.685 91.953 157.567 111.635 146.137 127.665C134.707 143.695 117.768 154.947 98.5605 159.269C79.3529 163.59 59.2264 160.678 42.0322 151.088C24.838 141.498 11.7838 125.905 5.36761 107.292C-1.04857 88.679 -0.376091 68.3539 7.25636 50.2059C14.8888 32.0578 28.9452 17.3615 46.7356 8.92921L49.7338 15.2547C33.5 22.9491 20.6735 36.3595 13.7089 52.9196C6.74432 69.4796 6.13068 88.0263 11.9854 105.011C17.8402 121.995 29.7522 136.224 45.4419 144.974C61.1315 153.725 79.4971 156.383 97.0239 152.44C114.551 148.496 130.008 138.228 140.438 123.601C150.868 108.974 155.537 91.0138 153.554 73.1587C151.57 55.3036 143.072 38.807 129.685 26.8257C116.299 14.8444 98.965 8.21997 81 8.21997V1.21997Z" fill="#0598FA" stroke="#0598FA"/>
</g>
<g id="Group_3">
<path id="Vector_2" d="M49.2794 7.77741C58.4325 3.82412 68.2438 1.61663 78.208 1.26868L78.4523 8.26441C69.36 8.58192 60.4071 10.5963 52.055 14.2036L49.2794 7.77741Z" fill="#5C0AF5" stroke="#5C0AF5"/>
</g>
</g>
</svg>
