<svg width="41" height="41" viewBox="0 0 41 41" fill="none" xmlns="http://www.w3.org/2000/svg">
<g id="ic_liquidity.505b3f30.svg" clip-path="url(#clip0_1_318)">
<g id="ic_liquidity">
<g id="Group 86">
<path id="Path 172" d="M15.5778 1.87422C15.4282 1.6649 15.2308 1.4943 15.002 1.3766C14.7732 1.25891 14.5196 1.19751 14.2623 1.19751C14.005 1.19751 13.7514 1.25891 13.5226 1.3766C13.2938 1.4943 13.0964 1.6649 12.9468 1.87422C9.92382 6.25222 2.72382 17.1672 2.72382 21.9542C2.72382 28.0142 7.88982 32.9282 14.2618 32.9282C20.6338 32.9282 25.8008 28.0142 25.8008 21.9542C25.8008 17.1672 18.6038 6.25222 15.5778 1.87422Z" fill="#03D1CF" fill-opacity="0.99"/>
<path id="Path 173" d="M27.1168 7.64326C26.9672 7.43394 26.7698 7.26334 26.541 7.14565C26.3122 7.02795 26.0586 6.96655 25.8013 6.96655C25.544 6.96655 25.2904 7.02795 25.0616 7.14565C24.8328 7.26334 24.6354 7.43394 24.4858 7.64326C21.4628 12.0213 14.2628 22.9363 14.2628 27.7233C14.2628 33.7833 19.4288 38.6973 25.8008 38.6973C32.1728 38.6973 37.3398 33.7833 37.3398 27.7233C37.3398 22.9363 30.1428 12.0213 27.1168 7.64326Z" fill="#303FD0"/>
<path id="Intersection 1" d="M14.2618 27.7232C14.2618 24.0712 18.4518 16.8502 21.7828 11.6882C23.9828 15.5882 25.7998 19.5462 25.7998 21.9542C25.7396 24.7081 24.6657 27.3429 22.7836 29.3542C20.9015 31.3654 18.3436 32.6116 15.5998 32.8542C14.7224 31.2865 14.2617 29.5198 14.2618 27.7232Z" fill="#50D0FE"/>
</g>
</g>
</g>
<defs>
<clipPath id="clip0_1_318">
<rect width="40" height="40" fill="white" transform="translate(0.0308228 0.197266)"/>
</clipPath>
</defs>
</svg>
