<svg width="33" height="33" viewBox="0 0 33 33" fill="none" xmlns="http://www.w3.org/2000/svg">
<g id="ic_medium.f6051b2e.svg" clip-path="url(#clip0_1_1014)">
<path id="Vector" d="M29.5318 5.6403L27.3888 7.6983C27.298 7.76713 27.2277 7.8593 27.1853 7.96496C27.1428 8.07063 27.1299 8.18584 27.1478 8.2983V23.4083C27.1281 23.5208 27.1403 23.6366 27.1829 23.7426C27.2255 23.8486 27.2968 23.9406 27.3888 24.0083L29.4888 26.0623V26.5173H18.9508V26.0783L21.1208 23.9713C21.3348 23.7573 21.3348 23.6943 21.3348 23.3713V11.1493L15.2988 26.4713H14.4868L7.45976 11.1493V21.4173C7.43055 21.631 7.4507 21.8486 7.51865 22.0533C7.5866 22.258 7.70055 22.4445 7.85176 22.5983L10.6728 26.0183V26.4733H2.65576V26.0183L5.47676 22.5983C5.62597 22.4443 5.73685 22.2573 5.80043 22.0525C5.86401 21.8477 5.87851 21.6308 5.84276 21.4193V9.5423C5.86111 9.38037 5.84036 9.21641 5.78225 9.06416C5.72413 8.91191 5.63035 8.77582 5.50876 8.6673L2.99476 5.6403V5.1853H10.7898L16.8088 18.3983L22.1028 5.1983H29.5318V5.6403Z" fill="#91929E"/>
</g>
<defs>
<clipPath id="clip0_1_1014">
<rect width="32" height="32" fill="white" transform="translate(0.0307617 0.197266)"/>
</clipPath>
</defs>
</svg>
