<svg width="48" height="41" viewBox="0 0 48 41" fill="none" xmlns="http://www.w3.org/2000/svg">
<g id="ic_stats.f0a18011.svg" clip-path="url(#clip0_1_395)">
<path id="Vector" d="M36.5308 0.197266H4.53082C2.32168 0.197266 0.530823 1.98813 0.530823 4.19727V28.1973C0.530823 30.4064 2.32168 32.1973 4.53082 32.1973H36.5308C38.74 32.1973 40.5308 30.4064 40.5308 28.1973V4.19727C40.5308 1.98813 38.74 0.197266 36.5308 0.197266Z" fill="#03CFCD"/>
<path id="Vector_2" d="M43.5308 8.19727H11.5308C9.32168 8.19727 7.53082 9.98813 7.53082 12.1973V36.1973C7.53082 38.4064 9.32168 40.1973 11.5308 40.1973H43.5308C45.74 40.1973 47.5308 38.4064 47.5308 36.1973V12.1973C47.5308 9.98813 45.74 8.19727 43.5308 8.19727Z" fill="#303FD0"/>
<path id="Vector_3" d="M11.5308 8.19727H40.5308V28.1973C40.5308 29.2581 40.1094 30.2755 39.3592 31.0257C38.6091 31.7758 37.5917 32.1973 36.5308 32.1973H7.53082V12.1973C7.53082 11.1364 7.95225 10.119 8.7024 9.36884C9.45254 8.61869 10.47 8.19727 11.5308 8.19727Z" fill="#50D0FE"/>
<path id="Vector_4" d="M41.9068 10.4473H29.9158C29.4336 10.447 28.9621 10.5897 28.5611 10.8575C28.16 11.1252 27.8474 11.506 27.6629 11.9515C27.4783 12.397 27.43 12.8872 27.5242 13.3601C27.6183 13.8331 27.8507 14.2674 28.1918 14.6083L31.4828 17.8993L24.0308 25.3473L16.5788 17.8953C16.277 17.5928 15.9185 17.3528 15.5239 17.1891C15.1292 17.0253 14.7061 16.941 14.2788 16.941C13.8515 16.941 13.4285 17.0253 13.0338 17.1891C12.6391 17.3528 12.2806 17.5928 11.9788 17.8953L5.00683 24.8763C4.85565 25.0272 4.73571 25.2065 4.65388 25.4038C4.57204 25.6011 4.52992 25.8126 4.52992 26.0263C4.52992 26.2399 4.57204 26.4514 4.65388 26.6487C4.73571 26.8461 4.85565 27.0253 5.00683 27.1763L7.30683 29.4763C7.45776 29.6274 7.63701 29.7474 7.83434 29.8292C8.03167 29.911 8.2432 29.9532 8.45683 29.9532C8.67045 29.9532 8.88198 29.911 9.07931 29.8292C9.27664 29.7474 9.4559 29.6274 9.60683 29.4763L14.2848 24.7973L21.7308 32.2473C22.0326 32.5497 22.3911 32.7897 22.7858 32.9535C23.1805 33.1172 23.6035 33.2015 24.0308 33.2015C24.4581 33.2015 24.8812 33.1172 25.2759 32.9535C25.6705 32.7897 26.029 32.5497 26.3308 32.2473L36.0808 22.4973L39.3718 25.7883C39.7131 26.1283 40.1474 26.3597 40.62 26.4531C41.0927 26.5466 41.5824 26.4979 42.0273 26.3132C42.4723 26.1285 42.8526 25.8162 43.1202 25.4156C43.3878 25.015 43.5307 24.544 43.5308 24.0623V12.0723C43.5311 11.8589 43.4893 11.6475 43.4078 11.4503C43.3263 11.2531 43.2067 11.0739 43.0558 10.923C42.905 10.7721 42.7258 10.6523 42.5287 10.5707C42.3315 10.4891 42.1202 10.4471 41.9068 10.4473Z" fill="white"/>
</g>
<defs>
<clipPath id="clip0_1_395">
<rect width="47" height="40" fill="white" transform="translate(0.530823 0.197266)"/>
</clipPath>
</defs>
</svg>
