<svg width="21" height="21" viewBox="0 0 21 21" fill="none" xmlns="http://www.w3.org/2000/svg">
<g id="SVG">
<path id="Vector" d="M10.0205 6.69727C9.49007 6.69727 8.98137 6.48655 8.60629 6.11148C8.23122 5.73641 8.02051 5.2277 8.02051 4.69727C8.02051 4.16683 8.23122 3.65812 8.60629 3.28305C8.98137 2.90798 9.49007 2.69727 10.0205 2.69727C10.5509 2.69727 11.0596 2.90798 11.4347 3.28305C11.8098 3.65812 12.0205 4.16683 12.0205 4.69727C12.0205 5.2277 11.8098 5.73641 11.4347 6.11148C11.0596 6.48655 10.5509 6.69727 10.0205 6.69727ZM10.0205 12.6973C9.49007 12.6973 8.98137 12.4866 8.60629 12.1115C8.23122 11.7364 8.02051 11.2277 8.02051 10.6973C8.02051 10.1668 8.23122 9.65813 8.60629 9.28305C8.98137 8.90798 9.49007 8.69727 10.0205 8.69727C10.5509 8.69727 11.0596 8.90798 11.4347 9.28305C11.8098 9.65813 12.0205 10.1668 12.0205 10.6973C12.0205 11.2277 11.8098 11.7364 11.4347 12.1115C11.0596 12.4866 10.5509 12.6973 10.0205 12.6973ZM10.0205 18.6973C9.49007 18.6973 8.98137 18.4866 8.60629 18.1115C8.23122 17.7364 8.02051 17.2277 8.02051 16.6973C8.02051 16.1668 8.23122 15.6581 8.60629 15.2831C8.98137 14.908 9.49007 14.6973 10.0205 14.6973C10.5509 14.6973 11.0596 14.908 11.4347 15.2831C11.8098 15.6581 12.0205 16.1668 12.0205 16.6973C12.0205 17.2277 11.8098 17.7364 11.4347 18.1115C11.0596 18.4866 10.5509 18.6973 10.0205 18.6973Z" fill="white"/>
</g>
</svg>
