<svg width="43" height="41" viewBox="0 0 43 41" fill="none" xmlns="http://www.w3.org/2000/svg">
<g id="ic_simpleswaps.2005009f.svg" clip-path="url(#clip0_1_356)">
<g id="ic_simpleswaps">
<path id="Path 178" d="M14.6725 31.6608L4.7256 21.714C4.26274 21.2512 3.94751 20.6616 3.81978 20.0196C3.69205 19.3777 3.75756 18.7123 4.00802 18.1076C4.25848 17.5029 4.68265 16.9861 5.22686 16.6225C5.77108 16.2589 6.41091 16.0648 7.06542 16.0649L11.4615 16.0628L11.4629 6.96653C11.4631 6.08892 11.8118 5.24731 12.4324 4.62675C13.053 4.00619 13.8946 3.65747 14.7722 3.65727L18.0807 3.65798C18.9586 3.65799 19.8005 4.00672 20.4212 4.62746C21.042 5.24819 21.3907 6.09009 21.3907 6.96795L21.3921 16.0628L25.7889 16.0628C26.4436 16.0624 27.0837 16.2563 27.6282 16.6199C28.1727 16.9835 28.5971 17.5004 28.8476 18.1053C29.0982 18.7102 29.1637 19.3758 29.0359 20.0179C28.908 20.66 28.5926 21.2498 28.1294 21.7125L18.1811 31.6608C17.7157 32.1259 17.0847 32.3871 16.4268 32.3871C15.7689 32.3871 15.1379 32.1259 14.6725 31.6608Z" fill="#04CFD0"/>
<path id="Path 179" d="M28.2719 4.76627L38.218 14.7124C38.6809 15.1752 38.9961 15.7648 39.1238 16.4067C39.2516 17.0487 39.1861 17.7141 38.9356 18.3188C38.6851 18.9235 38.261 19.4403 37.7168 19.8039C37.1725 20.1675 36.5327 20.3616 35.8782 20.3615L31.4807 20.3622L31.48 29.4591C31.4798 30.3368 31.1311 31.1784 30.5105 31.7989C29.89 32.4195 29.0483 32.7682 28.1707 32.7684H24.8629C23.985 32.7684 23.1431 32.4197 22.5224 31.7989C21.9017 31.1782 21.5529 30.3363 21.5529 29.4584V20.3622L17.1561 20.3622C16.5014 20.3625 15.8613 20.1686 15.3168 19.8051C14.7724 19.4415 14.348 18.9245 14.0974 18.3197C13.8468 17.7148 13.7813 17.0492 13.9092 16.4071C14.037 15.765 14.3525 15.1752 14.8156 14.7124L24.7618 4.76627C25.2272 4.3008 25.8585 4.03931 26.5168 4.03931C27.1751 4.03931 27.8064 4.3008 28.2719 4.76627Z" fill="#303FD0"/>
<g id="Intersection 3" style="mix-blend-mode:screen">
<path d="M21.5526 20.3623H17.1526C16.4982 20.3621 15.8586 20.1677 15.3147 19.8039C14.7707 19.4401 14.3469 18.9231 14.0969 18.3184C13.8468 17.7137 13.7817 17.0484 13.9098 16.4067C14.0379 15.765 14.3535 15.1757 14.8166 14.7133L21.3896 8.13831V16.0633H25.7896C26.4441 16.0632 27.0839 16.2573 27.6282 16.6209C28.1724 16.9844 28.5966 17.5013 28.847 18.106C29.0975 18.7106 29.1631 19.376 29.0353 20.018C28.9076 20.6599 28.5924 21.2495 28.1296 21.7123L21.5526 28.2863V20.3623Z" fill="#04CFD0"/>
</g>
</g>
</g>
<defs>
<clipPath id="clip0_1_356">
<rect width="42.872" height="40" fill="white" transform="translate(0.0348206 0.197266)"/>
</clipPath>
</defs>
</svg>
