<svg width="33" height="33" viewBox="0 0 33 33" fill="none" xmlns="http://www.w3.org/2000/svg">
<g id="ic_telegram.af1a4a66.svg" clip-path="url(#clip0_1_1028)">
<path id="Vector" d="M16.1088 3.2002C14.3915 3.19993 12.691 3.53793 11.1044 4.19488C9.51779 4.85183 8.07611 5.81487 6.86169 7.02901C5.64728 8.24315 4.68391 9.6846 4.02659 11.2711C3.36928 12.8575 3.03089 14.5579 3.03076 16.2752C3.0305 17.9927 3.36859 19.6934 4.02573 21.2802C4.68287 22.8671 5.64618 24.3089 6.86063 25.5233C8.07509 26.7378 9.5169 27.7011 11.1037 28.3582C12.6905 29.0154 14.3913 29.3535 16.1088 29.3532C17.8263 29.3535 19.527 29.0154 21.1138 28.3582C22.7006 27.7011 24.1424 26.7378 25.3569 25.5233C26.5713 24.3089 27.5347 22.8671 28.1918 21.2802C28.8489 19.6934 29.187 17.9927 29.1868 16.2752C29.1866 14.5579 28.8482 12.8575 28.1909 11.2711C27.5336 9.6846 26.5702 8.24315 25.3558 7.02901C24.1414 5.81487 22.6997 4.85183 21.1131 4.19488C19.5265 3.53793 17.826 3.19993 16.1088 3.2002ZM22.5318 12.1602L20.3858 22.2712C20.2278 22.9882 19.8008 23.1622 19.2048 22.8252L15.9308 20.4152L14.3578 21.9332C14.2802 22.0341 14.1803 22.1156 14.066 22.1715C13.9517 22.2273 13.826 22.256 13.6988 22.2552L13.9308 18.9282L19.9898 13.4542C20.2538 13.2222 19.9318 13.0902 19.5838 13.3222L12.0958 18.0362L8.86876 17.0292C8.16876 16.8082 8.15176 16.3292 9.01676 15.9902L21.6258 11.1282C22.2108 10.9172 22.7218 11.2702 22.5308 12.1562L22.5318 12.1602Z" fill="#91929E"/>
</g>
<defs>
<clipPath id="clip0_1_1028">
<rect width="32" height="32" fill="white" transform="translate(0.0307617 0.197266)"/>
</clipPath>
</defs>
</svg>
