<svg width="50" height="51" viewBox="0 0 50 51" fill="none" xmlns="http://www.w3.org/2000/svg">
<g id="ic_trading.2c53815a.svg" clip-path="url(#clip0_1_377)">
<path id="Vector" d="M37.7348 6.60573L22.0676 0.628173C21.5134 0.416528 20.9252 0.307774 20.332 0.307251C19.7381 0.307531 19.1492 0.416289 18.5944 0.628173L2.92517 6.60573C2.22287 6.87363 1.61848 7.34848 1.19198 7.96742C0.765486 8.58637 0.536993 9.32024 0.536744 10.0719V30.1291C0.536183 30.8814 0.764298 31.6161 1.19085 32.2359C1.6174 32.8556 2.22223 33.3311 2.92517 33.5992L18.5924 39.5728C19.1476 39.7863 19.7371 39.8964 20.332 39.8977C20.9259 39.8974 21.5147 39.7887 22.0696 39.5768L37.7348 33.5992C38.4385 33.3317 39.0441 32.8565 39.4714 32.2368C39.8987 31.617 40.1274 30.8819 40.1272 30.1291V10.0719C40.1266 9.31977 39.8976 8.58556 39.4703 7.96656C39.0431 7.34756 38.4378 6.87299 37.7348 6.60573Z" fill="#03CFCD"/>
<path id="Vector_2" d="M47.1365 16.7993L31.4693 10.8217C30.9151 10.6101 30.3269 10.5013 29.7337 10.5008C29.1398 10.5011 28.5509 10.6098 27.9961 10.8217L12.3269 16.7993C11.6246 17.0672 11.0202 17.542 10.5937 18.161C10.1672 18.7799 9.93873 19.5138 9.93848 20.2654V40.3226C9.93792 41.0749 10.166 41.8097 10.5926 42.4294C11.0191 43.0492 11.624 43.5246 12.3269 43.7928L27.9941 49.7663C28.5493 49.9798 29.1389 50.0899 29.7337 50.0912C30.3276 50.091 30.9165 49.9822 31.4713 49.7703L47.1365 43.7928C47.8402 43.5253 48.4459 43.0501 48.8732 42.4303C49.3005 41.8105 49.5292 41.0754 49.5289 40.3226V20.2654C49.5284 19.5133 49.2993 18.7791 48.872 18.1601C48.4448 17.5411 47.8396 17.0665 47.1365 16.7993Z" fill="#303FD0"/>
<path id="Vector_3" d="M18.5924 39.5738L9.93848 36.2716V20.2654C9.939 19.5138 10.1676 18.7801 10.5941 18.1612C11.0205 17.5423 11.6248 17.0674 12.3269 16.7993L27.9941 10.8207C29.1132 10.3942 30.3502 10.3942 31.4693 10.8207L40.1232 14.1199V30.126C40.1233 30.8786 39.8947 31.6134 39.4676 32.2329C39.0405 32.8525 38.4351 33.3276 37.7318 33.5952L22.0676 39.5738C20.9484 40.0003 19.7115 40.0003 18.5924 39.5738Z" fill="#50D0FE"/>
<path id="Vector_4" d="M17.5141 6.16315L10.1775 13.4997C9.83616 13.8408 9.60366 14.2755 9.50941 14.7488C9.41516 15.2221 9.46339 15.7127 9.64801 16.1585C9.83293 16.6048 10.1463 16.9861 10.5483 17.2539C10.9503 17.5218 11.4229 17.6641 11.906 17.6629L15.1451 17.6643L15.1451 26.0839C15.1454 26.7309 15.4025 27.3513 15.8599 27.8088C16.3174 28.2662 16.9378 28.5233 17.5848 28.5236L20.0244 28.5243C20.6716 28.5242 21.2923 28.2671 21.75 27.8095C22.2076 27.3518 22.4647 26.7311 22.4648 26.0839L22.4641 17.665L25.7075 17.665C26.1901 17.665 26.662 17.5219 27.0633 17.2537C27.4646 16.9856 27.7774 16.6044 27.9621 16.1585C28.1468 15.7126 28.1951 15.2219 28.1009 14.7486C28.0068 14.2752 27.7744 13.8403 27.4331 13.499L20.1001 6.16598C19.7573 5.82317 19.2925 5.63035 18.8077 5.62982C18.3229 5.62929 17.8576 5.8211 17.5141 6.16315ZM30.5557 44.021L37.8866 36.6901C38.2279 36.3488 38.4603 35.9139 38.5544 35.4406C38.6486 34.9672 38.6002 34.4765 38.4155 34.0306C38.2308 33.5847 37.918 33.2036 37.5167 32.9354C37.1154 32.6673 36.6436 32.5241 36.161 32.5241L32.9161 32.5213L32.9154 24.1024C32.9154 23.4552 32.6583 22.8345 32.2006 22.3768C31.743 21.9192 31.1223 21.662 30.4751 21.662L28.0368 21.6627C27.3896 21.6628 26.7689 21.9199 26.3113 22.3775C25.8536 22.8352 25.5965 23.4559 25.5965 24.1031L25.5965 32.5213L22.3538 32.522C21.8711 32.522 21.3993 32.6651 20.998 32.9333C20.5967 33.2014 20.2839 33.5826 20.0992 34.0285C19.9145 34.4744 19.8662 34.9651 19.9603 35.4384C20.0545 35.9118 20.2869 36.3467 20.6281 36.688L27.9612 44.021C28.3045 44.3643 28.7701 44.5572 29.2556 44.5572C29.7411 44.5572 30.2067 44.3643 30.55 44.021L30.5557 44.021Z" fill="white"/>
</g>
<defs>
<clipPath id="clip0_1_377">
<rect width="48.9882" height="49.78" fill="white" transform="translate(0.536743 0.307251)"/>
</clipPath>
</defs>
</svg>
