<svg width="29" height="24" viewBox="0 0 29 24" fill="none" xmlns="http://www.w3.org/2000/svg">
<g id="ic_twitter.9f35b403.svg" clip-path="url(#clip0_1_488)">
<path id="Vector" d="M25.1474 6.4954C26.2665 5.67482 27.2391 4.6712 28.0241 3.52684C26.9749 3.98532 25.8632 4.28448 24.7257 4.41441C25.923 3.70303 26.8196 2.57929 27.2474 1.25394C26.1234 1.92303 24.8917 2.39178 23.6072 2.63927C23.0703 2.06591 22.4212 1.60921 21.7002 1.29762C20.9791 0.986036 20.2017 0.826224 19.4162 0.828142C18.6628 0.827748 17.9167 0.975851 17.2206 1.26398C16.5245 1.55212 15.892 1.97463 15.3592 2.50736C14.8265 3.0401 14.404 3.67261 14.1158 4.36874C13.8277 5.06487 13.6796 5.81096 13.68 6.56437C13.6823 7.00618 13.7299 7.4466 13.8219 7.87873C11.5392 7.7633 9.30632 7.16921 7.26807 6.13502C5.22983 5.10083 3.43179 3.64965 1.99065 1.87564C1.47565 2.75458 1.20574 3.75553 1.20903 4.77423C1.20831 5.71951 1.44137 6.6503 1.88745 7.48371C2.33354 8.31712 2.97881 9.02727 3.76579 9.55092C2.85629 9.51603 1.9679 9.26671 1.17305 8.82327V8.89424C1.17139 10.2192 1.62845 11.5038 2.46658 12.53C3.30472 13.5562 4.47224 14.2606 5.77082 14.5235C5.27813 14.6533 4.77104 14.7204 4.26155 14.7234C3.89867 14.721 3.53649 14.6913 3.17808 14.6345C3.54791 15.7723 4.26367 16.7663 5.2255 17.4778C6.18733 18.1893 7.34726 18.5828 8.54348 18.6035C6.51276 20.1973 4.0044 21.0607 1.42293 21.0544C0.960143 21.0574 0.497576 21.0334 0.0375977 20.9824C2.6641 22.6715 5.7226 23.5659 8.84534 23.5581C19.3942 23.5581 25.1654 14.8204 25.1654 7.23804C25.1654 6.98916 25.1654 6.74128 25.1474 6.4954Z" fill="#91929E"/>
</g>
<defs>
<clipPath id="clip0_1_488">
<rect width="27.9865" height="22.73" fill="white" transform="translate(0.0375977 0.827148)"/>
</clipPath>
</defs>
</svg>
