<svg width="41" height="40" viewBox="0 0 41 40" fill="none" xmlns="http://www.w3.org/2000/svg">
<g id="ic_usdc_40.27f415ba.svg" clip-path="url(#clip0_1_450)">
<path id="Vector" d="M20.5001 40.0049C24.4557 40.0049 28.3225 38.8319 31.6115 36.6343C34.9004 34.4367 37.4639 31.3131 38.9776 27.6586C40.4914 24.004 40.8875 19.9827 40.1158 16.1031C39.3441 12.2235 37.4392 8.65981 34.6422 5.86276C31.8451 3.06571 28.2815 1.16089 24.4019 0.389186C20.5222 -0.382518 16.5009 0.0135485 12.8464 1.5273C9.19187 3.04105 6.06829 5.6045 3.87067 8.89349C1.67304 12.1825 0.500058 16.0493 0.500058 20.0049C0.493727 22.6331 1.00672 25.2367 2.00957 27.666C3.01243 30.0954 4.48537 32.3027 6.34381 34.1611C8.20224 36.0196 10.4095 37.4925 12.8389 38.4954C15.2683 39.4982 17.8718 40.0112 20.5001 40.0049Z" fill="#2775CA"/>
<g id="Group">
<path id="Vector_2" d="M26 23.1719C26 20.2549 24.25 19.2549 20.75 18.8389C18.25 18.5059 17.75 17.8389 17.75 16.6719C17.75 15.5049 18.583 14.7549 20.25 14.7549C21.75 14.7549 22.583 15.2549 23 16.5049C23.0429 16.6257 23.1218 16.7303 23.226 16.8049C23.3303 16.8795 23.4548 16.9203 23.583 16.9219H24.916C24.993 16.9237 25.0697 16.9098 25.1412 16.8811C25.2127 16.8525 25.2777 16.8096 25.3322 16.7551C25.3867 16.7006 25.4296 16.6356 25.4582 16.5641C25.4869 16.4925 25.5008 16.4159 25.499 16.3389V16.2559C25.3378 15.3527 24.8828 14.5281 24.2046 13.9102C23.5265 13.2923 22.6632 12.9156 21.749 12.8389V10.8389C21.749 10.5059 21.499 10.2559 21.082 10.1719H19.832C19.499 10.1719 19.249 10.4219 19.165 10.8389V12.7559C16.665 13.0889 15.082 14.7559 15.082 16.8389C15.082 19.5889 16.749 20.6719 20.249 21.0889C22.582 21.5059 23.332 22.0059 23.332 23.3389C23.332 24.6719 22.165 25.5889 20.582 25.5889C18.415 25.5889 17.665 24.6719 17.415 23.4219C17.39 23.2843 17.3184 23.1594 17.2122 23.0684C17.1061 22.9773 16.9718 22.9256 16.832 22.9219H15.415C15.338 22.9201 15.2613 22.9339 15.1898 22.9626C15.1183 22.9913 15.0533 23.0342 14.9988 23.0887C14.9443 23.1432 14.9014 23.2082 14.8728 23.2797C14.8441 23.3512 14.8302 23.4279 14.832 23.5049V23.5879C15.165 25.6709 16.499 27.1709 19.249 27.5879V29.5879C19.249 29.9209 19.499 30.1709 19.916 30.2549H21.163C21.496 30.2549 21.746 30.0049 21.83 29.5879V27.5879C24.33 27.1709 25.997 25.4209 25.997 23.1709L26 23.1719Z" fill="white"/>
<path id="Vector_3" d="M16.25 31.9209C13.8516 31.0419 11.781 29.4477 10.3182 27.3536C8.85534 25.2596 8.07091 22.7668 8.07091 20.2124C8.07091 17.658 8.85534 15.1653 10.3182 13.0712C11.781 10.9772 13.8516 9.38287 16.25 8.50391C16.4096 8.43433 16.5436 8.3167 16.6332 8.16739C16.7228 8.01808 16.7637 7.84451 16.75 7.6709V6.50391C16.7616 6.35103 16.7172 6.19915 16.6253 6.07648C16.5333 5.95381 16.4 5.86869 16.25 5.83692C16.1327 5.82443 16.0147 5.85384 15.917 5.91992C12.8853 6.88631 10.2394 8.79172 8.36194 11.3608C6.48443 13.9298 5.47253 17.0294 5.47253 20.2114C5.47253 23.3934 6.48443 26.493 8.36194 29.062C10.2394 31.6311 12.8853 33.5365 15.917 34.5029C15.9863 34.543 16.064 34.5662 16.144 34.5705C16.2239 34.5748 16.3037 34.5601 16.3769 34.5276C16.45 34.4951 16.5145 34.4457 16.5649 34.3836C16.6153 34.3214 16.6503 34.2482 16.667 34.1699C16.75 34.0869 16.75 34.0029 16.75 33.8369V32.6679C16.7234 32.5154 16.6651 32.3702 16.579 32.2415C16.4929 32.1129 16.3808 32.0037 16.25 31.9209ZM25.083 5.9209C25.0137 5.88077 24.936 5.85762 24.856 5.85333C24.7761 5.84904 24.6963 5.86376 24.6231 5.89624C24.5499 5.92872 24.4855 5.97806 24.4351 6.04022C24.3847 6.10239 24.3497 6.17562 24.333 6.25391C24.25 6.33691 24.25 6.42092 24.25 6.58692V7.75391C24.2644 7.92167 24.3169 8.08393 24.4035 8.2283C24.4902 8.37267 24.6087 8.49534 24.75 8.58692C27.1484 9.46587 29.219 11.0602 30.6818 13.1542C32.1446 15.2483 32.9291 17.741 32.9291 20.2954C32.9291 22.8498 32.1446 25.3425 30.6818 27.4366C29.219 29.5306 27.1484 31.1249 24.75 32.0039C24.5904 32.0735 24.4564 32.1911 24.3668 32.3404C24.2771 32.4897 24.2363 32.6633 24.25 32.8369V34.0039C24.2384 34.1568 24.2827 34.3087 24.3747 34.4313C24.4667 34.554 24.6 34.6391 24.75 34.6709C24.8673 34.6834 24.9852 34.654 25.083 34.5879C28.1155 33.6102 30.7598 31.6959 32.6356 29.1204C34.5114 26.5448 35.5219 23.4406 35.5219 20.2544C35.5219 17.0682 34.5114 13.964 32.6356 11.3885C30.7598 8.81288 28.1155 6.89858 25.083 5.9209Z" fill="white"/>
</g>
</g>
<defs>
<clipPath id="clip0_1_450">
<rect width="40" height="40" fill="white" transform="translate(0.5 0.00488281)"/>
</clipPath>
</defs>
</svg>
