<svg width="48" height="42" viewBox="0 0 48 42" fill="none" xmlns="http://www.w3.org/2000/svg">
<g id="ic_totaluser.ae09b310.svg" clip-path="url(#clip0_1_410)">
<g id="ic_totaluser">
<path id="Rectangle 423" d="M27.5308 0.697266H5.53082C2.7694 0.697266 0.530823 2.93584 0.530823 5.69727V27.6973C0.530823 30.4587 2.7694 32.6973 5.53082 32.6973H27.5308C30.2922 32.6973 32.5308 30.4587 32.5308 27.6973V5.69727C32.5308 2.93584 30.2922 0.697266 27.5308 0.697266Z" fill="#03D1CF" fill-opacity="0.99"/>
<path id="Rectangle 424" d="M42.5308 9.69727H20.5308C17.7694 9.69727 15.5308 11.9358 15.5308 14.6973V36.6973C15.5308 39.4587 17.7694 41.6973 20.5308 41.6973H42.5308C45.2922 41.6973 47.5308 39.4587 47.5308 36.6973V14.6973C47.5308 11.9358 45.2922 9.69727 42.5308 9.69727Z" fill="#303FD0"/>
<path id="Intersection 34" d="M15.5308 32.6973V14.6973C15.5308 13.3712 16.058 12.0994 16.9957 11.1617C17.9333 10.2241 19.2047 9.69727 20.5308 9.69727H32.5308V27.6973C32.5308 29.0233 32.0037 30.2951 31.066 31.2328C30.1283 32.1705 28.8569 32.6973 27.5308 32.6973H15.5308Z" fill="#50D0FE"/>
<path id="Path 1618" d="M11.0298 20.7693C12.0528 20.7685 13.0336 20.3618 13.757 19.6384C14.4803 18.9151 14.887 17.9343 14.8878 16.9113C14.8868 15.8885 14.4799 14.9079 13.7566 14.1848C13.0333 13.4617 12.0526 13.0551 11.0298 13.0543C10.0072 13.0553 9.02679 13.462 8.30369 14.1851C7.5806 14.9082 7.1739 15.8887 7.17284 16.9113C7.17363 17.9341 7.58021 18.9148 8.30334 19.6381C9.02647 20.3614 10.007 20.7682 11.0298 20.7693ZM38.0298 20.7693C39.0528 20.7685 40.0336 20.3618 40.757 19.6384C41.4803 18.9151 41.887 17.9343 41.8878 16.9113C41.887 15.8883 41.4803 14.9075 40.757 14.1841C40.0336 13.4608 39.0528 13.0541 38.0298 13.0533C37.0069 13.0541 36.026 13.4608 35.3027 14.1841C34.5794 14.9075 34.1726 15.8883 34.1718 16.9113C34.1726 17.9348 34.5798 18.9161 35.3038 19.6395C36.0278 20.3629 37.0094 20.7693 38.0328 20.7693H38.0298ZM39.9618 22.6963H36.1038C35.0851 22.6952 34.1076 23.0984 33.3858 23.8173C34.6068 24.4817 35.6533 25.4255 36.4401 26.5714C37.2268 27.7174 37.7315 29.0331 37.9128 30.4113H41.8908C42.1442 30.4116 42.3952 30.3618 42.6293 30.265C42.8635 30.1681 43.0763 30.0261 43.2554 29.8469C43.4346 29.6677 43.5767 29.455 43.6735 29.2208C43.7704 28.9866 43.8201 28.7357 43.8198 28.4823V26.5553C43.8193 25.5322 43.4127 24.5511 42.6893 23.8275C41.966 23.1039 40.985 22.6971 39.9618 22.6963ZM24.5318 22.6963C25.4185 22.6968 26.2966 22.5226 27.116 22.1835C27.9353 21.8444 28.6797 21.3471 29.3067 20.7201C29.9337 20.0931 30.4309 19.3487 30.77 18.5294C31.1091 17.7101 31.2834 16.832 31.2828 15.9453C31.2831 15.0588 31.1086 14.1809 30.7694 13.3618C30.4302 12.5427 29.9329 11.7985 29.306 11.1717C28.679 10.545 27.9347 10.0479 27.1155 9.70892C26.2963 9.36996 25.4184 9.19576 24.5318 9.19629C23.6451 9.19576 22.767 9.37003 21.9477 9.70911C21.1284 10.0482 20.384 10.5454 19.757 11.1724C19.13 11.7994 18.6327 12.5439 18.2937 13.3632C17.9546 14.1825 17.7803 15.0606 17.7808 15.9473C17.7806 16.8338 17.955 17.7117 18.2942 18.5308C18.6334 19.3499 19.1307 20.0941 19.7577 20.7208C20.3847 21.3476 21.129 21.8447 21.9482 22.1837C22.7674 22.5226 23.6453 22.6968 24.5318 22.6963ZM29.1608 24.6263H28.6608C27.3748 25.2547 25.9632 25.5843 24.5318 25.5903C23.1005 25.5836 21.6891 25.2541 20.4028 24.6263H19.9028C18.0613 24.6266 16.2952 25.3582 14.993 26.6604C13.6908 27.9626 12.9591 29.7287 12.9588 31.5703V33.3063C12.9599 34.073 13.2651 34.8079 13.8075 35.3497C14.3499 35.8916 15.0852 36.196 15.8518 36.1963H33.2108C33.9775 36.196 34.7127 35.8916 35.2551 35.3497C35.7975 34.8079 36.1028 34.073 36.1038 33.3063V31.5703C36.1036 29.7289 35.372 27.963 34.07 26.6608C32.7681 25.3586 31.0022 24.6268 29.1608 24.6263ZM15.6768 23.8193C14.9554 23.0997 13.9778 22.6958 12.9588 22.6963H9.10184C8.0787 22.6971 7.09771 23.1039 6.37434 23.8275C5.65097 24.5511 5.24437 25.5322 5.24384 26.5553V28.4843C5.24357 28.7377 5.29329 28.9886 5.39014 29.2228C5.48699 29.457 5.62906 29.6697 5.80824 29.8489C5.98742 30.0281 6.20017 30.1701 6.43433 30.267C6.66848 30.3638 6.91944 30.4136 7.17284 30.4133H11.1438C11.3276 29.0351 11.8338 27.7197 12.6214 26.574C13.4091 25.4282 14.4559 24.4844 15.6768 23.8193Z" fill="white"/>
</g>
</g>
<defs>
<clipPath id="clip0_1_410">
<rect width="47" height="41" fill="white" transform="translate(0.530823 0.697266)"/>
</clipPath>
</defs>
</svg>
